<svg width="1750" height="313" viewBox="0 0 1750 313" fill="none" xmlns="http://www.w3.org/2000/svg">
<g filter="url(#filter0_d_2012_2)">
<rect x="13" y="9" width="386" height="287" rx="20" fill="url(#paint0_linear_2012_2)"/>
</g>
<g filter="url(#filter1_d_2012_2)">
<rect x="459" y="9" width="386" height="287" rx="20" fill="url(#paint1_linear_2012_2)"/>
</g>
<g filter="url(#filter2_d_2012_2)">
<rect x="905" y="9" width="386" height="287" rx="20" fill="url(#paint2_linear_2012_2)"/>
</g>
<g filter="url(#filter3_d_2012_2)">
<rect x="1351" y="9" width="386" height="287" rx="20" fill="url(#paint3_linear_2012_2)"/>
</g>
<path d="M135.316 154.855V172H131.666V150.029H137.148L143.055 167.42L149.084 150.029H154.566V172H150.916V154.855L145.119 172H141.141L135.316 154.855ZM169.523 150.029L176.797 172H172.6L170.986 166.955H163.111L161.512 172H157.301L164.52 150.029H169.523ZM163.672 164.945H170.439L167.104 154.432L163.672 164.945ZM190.414 158.656C190.751 158.392 191.025 158.041 191.234 157.604C191.444 157.157 191.549 156.688 191.549 156.195C191.549 155.703 191.508 155.307 191.426 155.006C191.344 154.696 191.216 154.432 191.043 154.213C190.879 153.994 190.697 153.803 190.496 153.639C190.296 153.475 190.04 153.342 189.73 153.242C189.421 153.142 189.129 153.06 188.855 152.996C188.582 152.932 188.24 152.887 187.83 152.859C187.146 152.814 186.399 152.791 185.588 152.791H183.729V159.695H185.725C187.967 159.695 189.53 159.349 190.414 158.656ZM195.773 155.58C195.773 157.394 195.222 158.738 194.119 159.613C193.025 160.479 191.508 160.939 189.566 160.994C192.674 161.35 194.616 162.393 195.391 164.125C195.701 164.818 195.855 165.643 195.855 166.6V172H191.713V166.312C191.713 164.371 190.92 163.159 189.334 162.676C188.468 162.411 187.256 162.279 185.697 162.279H183.729V172H179.545V150.029H185.629C188.327 150.02 190.387 150.225 191.809 150.645C193.094 151.018 194.051 151.574 194.68 152.312C195.409 153.16 195.773 154.249 195.773 155.58ZM203.744 172H199.561V150.029H203.744V159.764H205.645L212.016 150.029H216.418L208.953 160.939L217.252 172H212.562L205.535 162.252H203.744V172ZM219.658 172V150.029H234V152.791H223.828V159.271H232.701V161.814H223.828V169.279H234.15V172H219.658ZM245.457 152.791V172H241.273V152.791H235.312V150.029H251.336V152.791H245.457ZM267.906 162.047C266.812 162.311 265.947 162.735 265.309 163.318C264.68 163.902 264.365 164.74 264.365 165.834C264.365 168.304 266.024 169.539 269.342 169.539C272.386 169.539 274.236 168.983 274.893 167.871L267.906 162.047ZM276.123 161.705L276.109 160.037H279.432C279.432 162.307 279.258 164.471 278.912 166.531L278.734 167.461L282.207 170.387L280.498 172.492L277.326 169.826C276.041 171.64 273.38 172.547 269.342 172.547C264.93 172.547 262.205 171.248 261.166 168.65C260.874 167.921 260.729 167.146 260.729 166.326C260.729 165.506 260.815 164.799 260.988 164.207C261.161 163.615 261.389 163.104 261.672 162.676C261.954 162.247 262.314 161.855 262.752 161.5C263.481 160.898 264.434 160.374 265.609 159.928C264.844 159.454 264.169 158.793 263.586 157.945C263.003 157.098 262.711 156.232 262.711 155.348C262.711 154.464 262.875 153.716 263.203 153.105C263.54 152.486 264.001 151.989 264.584 151.615C265.76 150.859 267.204 150.48 268.918 150.48C271.315 150.48 273.051 151.164 274.127 152.531C274.692 153.242 274.975 154.113 274.975 155.143C274.975 157.886 273.521 159.755 270.613 160.748L276.041 165.232C276.096 164.376 276.123 163.2 276.123 161.705ZM268.385 158.574C269.643 158.219 270.545 157.781 271.092 157.262C271.62 156.77 271.885 156.15 271.885 155.402C271.885 154.646 271.625 154.076 271.105 153.693C270.595 153.311 269.893 153.119 269 153.119C267.095 153.119 266.143 153.88 266.143 155.402C266.143 156.077 266.366 156.692 266.812 157.248C267.268 157.804 267.792 158.246 268.385 158.574ZM114.562 200.656C114.9 200.392 115.173 200.041 115.383 199.604C115.592 199.157 115.697 198.688 115.697 198.195C115.697 197.703 115.656 197.307 115.574 197.006C115.492 196.696 115.365 196.432 115.191 196.213C115.027 195.994 114.845 195.803 114.645 195.639C114.444 195.475 114.189 195.342 113.879 195.242C113.569 195.142 113.277 195.06 113.004 194.996C112.73 194.932 112.389 194.887 111.979 194.859C111.295 194.814 110.548 194.791 109.736 194.791H107.877V201.695H109.873C112.115 201.695 113.678 201.349 114.562 200.656ZM119.922 197.58C119.922 199.394 119.37 200.738 118.268 201.613C117.174 202.479 115.656 202.939 113.715 202.994C116.823 203.35 118.764 204.393 119.539 206.125C119.849 206.818 120.004 207.643 120.004 208.6V214H115.861V208.312C115.861 206.371 115.068 205.159 113.482 204.676C112.617 204.411 111.404 204.279 109.846 204.279H107.877V214H103.693V192.029H109.777C112.475 192.02 114.535 192.225 115.957 192.645C117.242 193.018 118.199 193.574 118.828 194.312C119.557 195.16 119.922 196.249 119.922 197.58ZM123.709 214V192.029H138.051V194.791H127.879V201.271H136.752V203.814H127.879V211.279H138.201V214H123.709ZM150.096 211.389C152.639 211.389 154.215 210.678 154.826 209.256V204.717H149.549V202.146H158.518V214H156.029L155.332 211.771C154.986 212.674 154.311 213.348 153.309 213.795C152.315 214.242 151.153 214.465 149.822 214.465C148.501 214.465 147.329 214.283 146.309 213.918C145.288 213.553 144.422 213.043 143.711 212.387C142.991 211.73 142.394 210.928 141.92 209.98C140.99 208.158 140.53 205.897 140.539 203.199C140.53 199.645 141.355 196.846 143.014 194.805C144.727 192.69 147.298 191.633 150.725 191.633C153.377 191.633 155.542 192.234 157.219 193.438L155.961 196.254C154.184 195.224 152.438 194.709 150.725 194.709C147.68 194.709 145.794 196.409 145.064 199.809C144.846 200.802 144.741 201.928 144.75 203.186C144.75 208.654 146.532 211.389 150.096 211.389ZM166.557 204.033C166.557 206.212 166.73 207.775 167.076 208.723C167.404 209.634 167.878 210.29 168.498 210.691C169.227 211.165 170.161 211.398 171.301 211.389C173.069 211.389 174.295 210.874 174.979 209.844C175.434 209.169 175.712 208.454 175.812 207.697C175.967 206.622 176.045 205.4 176.045 204.033V192.029H180.229V203.979C180.229 209.201 178.652 212.46 175.498 213.754C174.35 214.228 172.964 214.465 171.342 214.465C169.719 214.465 168.325 214.232 167.158 213.768C165.992 213.303 165.062 212.615 164.369 211.703C163.038 209.953 162.373 207.378 162.373 203.979V192.029H166.557V204.033ZM184.33 214V192.029H188.5V211.238H198.344V214H184.33ZM211.633 192.029L218.906 214H214.709L213.096 208.955H205.221L203.621 214H199.41L206.629 192.029H211.633ZM205.781 206.945H212.549L209.213 196.432L205.781 206.945ZM229.926 194.791V214H225.742V194.791H219.781V192.029H235.805V194.791H229.926ZM239.852 211.949V194.121H237.309V192.029H246.551V194.121H243.967V211.949H246.551V214H237.309V211.949H239.852ZM258.951 191.646C260.428 191.646 261.781 191.915 263.012 192.453C264.251 192.982 265.254 193.747 266.02 194.75C267.533 196.728 268.289 199.453 268.289 202.926C268.298 208.914 266.316 212.583 262.342 213.932C261.266 214.296 259.963 214.479 258.432 214.479C256.91 214.479 255.524 214.201 254.275 213.645C253.036 213.079 252.042 212.273 251.295 211.225C249.837 209.183 249.107 206.376 249.107 202.803C249.107 198.592 250.219 195.538 252.443 193.643C254.011 192.312 256.18 191.646 258.951 191.646ZM262.492 196.377C262.1 195.876 261.585 195.475 260.947 195.174C260.318 194.864 259.576 194.709 258.719 194.709C257.871 194.709 257.124 194.859 256.477 195.16C255.839 195.461 255.319 195.862 254.918 196.363C254.526 196.855 254.212 197.471 253.975 198.209C253.555 199.503 253.341 201.13 253.332 203.09C253.332 206.18 253.865 208.395 254.932 209.734C255.807 210.828 257.06 211.375 258.691 211.375C260.113 211.375 261.221 210.988 262.014 210.213C262.816 209.429 263.358 208.426 263.641 207.205C263.932 205.975 264.078 204.744 264.078 203.514C264.078 202.283 264.033 201.281 263.941 200.506C263.85 199.731 263.682 198.975 263.436 198.236C263.199 197.489 262.884 196.869 262.492 196.377ZM285.584 214L275.686 197.252V214H271.857V192.029H276.615L286.336 208.6V192.029H290.164V214H285.584ZM307.5 196.295C306.743 195.839 305.846 195.461 304.807 195.16C303.777 194.859 302.842 194.709 302.004 194.709C301.174 194.709 300.523 194.741 300.049 194.805C299.575 194.878 299.128 195.005 298.709 195.188C297.834 195.57 297.396 196.29 297.396 197.348C297.396 197.977 297.579 198.469 297.943 198.824C298.317 199.171 298.827 199.458 299.475 199.686L304.191 201.49C306.689 202.447 308.27 203.792 308.936 205.523C309.209 206.234 309.346 207.1 309.346 208.121C309.346 209.133 309.15 210.062 308.758 210.91C308.366 211.749 307.81 212.423 307.09 212.934C305.668 213.954 303.722 214.465 301.252 214.465C298.782 214.465 296.38 213.836 294.047 212.578L294.799 209.584C296.749 210.514 298.727 211.092 300.732 211.32C301.133 211.366 301.512 211.389 301.867 211.389C304.201 211.389 305.367 210.427 305.367 208.504C305.367 207.656 305.144 206.986 304.697 206.494C304.251 205.993 303.617 205.592 302.797 205.291L297.957 203.363C294.967 202.188 293.473 200.283 293.473 197.648C293.464 195.598 294.225 194.066 295.756 193.055C297.187 192.107 299.001 191.633 301.197 191.633C303.932 191.633 306.324 192.239 308.375 193.451L307.5 196.295ZM130.066 236.709C126.913 236.718 125.09 238.664 124.598 242.547C124.497 243.349 124.447 244.233 124.447 245.199C124.447 250.659 126.32 253.389 130.066 253.389C131.935 253.389 133.589 252.883 135.029 251.871L136.178 254.824C135.549 255.344 134.637 255.745 133.443 256.027C132.258 256.319 130.941 256.465 129.492 256.465C128.052 256.465 126.717 256.191 125.486 255.645C124.256 255.098 123.262 254.314 122.506 253.293C121.002 251.27 120.25 248.544 120.25 245.117C120.241 241.727 121.002 238.992 122.533 236.914C123.299 235.875 124.297 235.068 125.527 234.494C126.767 233.92 128.102 233.633 129.533 233.633C132.486 233.633 134.651 234.111 136.027 235.068L134.934 238.062C133.548 237.16 131.926 236.709 130.066 236.709ZM148.127 233.646C149.604 233.646 150.957 233.915 152.188 234.453C153.427 234.982 154.43 235.747 155.195 236.75C156.708 238.728 157.465 241.453 157.465 244.926C157.474 250.914 155.492 254.583 151.518 255.932C150.442 256.296 149.139 256.479 147.607 256.479C146.085 256.479 144.7 256.201 143.451 255.645C142.212 255.079 141.218 254.273 140.471 253.225C139.012 251.183 138.283 248.376 138.283 244.803C138.283 240.592 139.395 237.538 141.619 235.643C143.187 234.312 145.356 233.646 148.127 233.646ZM151.668 238.377C151.276 237.876 150.761 237.475 150.123 237.174C149.494 236.864 148.751 236.709 147.895 236.709C147.047 236.709 146.299 236.859 145.652 237.16C145.014 237.461 144.495 237.862 144.094 238.363C143.702 238.855 143.387 239.471 143.15 240.209C142.731 241.503 142.517 243.13 142.508 245.09C142.508 248.18 143.041 250.395 144.107 251.734C144.982 252.828 146.236 253.375 147.867 253.375C149.289 253.375 150.396 252.988 151.189 252.213C151.992 251.429 152.534 250.426 152.816 249.205C153.108 247.975 153.254 246.744 153.254 245.514C153.254 244.283 153.208 243.281 153.117 242.506C153.026 241.731 152.857 240.975 152.611 240.236C152.374 239.489 152.06 238.869 151.668 238.377ZM164.684 238.855V256H161.033V234.029H166.516L172.422 251.42L178.451 234.029H183.934V256H180.283V238.855L174.486 256H170.508L164.684 238.855ZM194.256 234.029C198.12 234.029 200.841 234.731 202.418 236.135C203.694 237.274 204.341 238.906 204.359 241.029C204.359 244.63 202.395 246.785 198.467 247.496C197.173 247.733 195.632 247.847 193.846 247.838H192.396V256H188.213V234.029H194.256ZM200.162 241.016C200.162 240.25 200.025 239.571 199.752 238.979C199.488 238.386 199.082 237.935 198.535 237.625C197.551 237.069 196.115 236.791 194.229 236.791H192.396V245.186H193.723C196.211 245.195 197.938 244.826 198.904 244.078C199.743 243.422 200.162 242.401 200.162 241.016ZM207.244 256V234.029H211.414V253.238H221.258V256H207.244ZM225.469 253.949V236.121H222.926V234.029H232.168V236.121H229.584V253.949H232.168V256H222.926V253.949H225.469ZM246.113 234.029L253.387 256H249.189L247.576 250.955H239.701L238.102 256H233.891L241.109 234.029H246.113ZM240.262 248.945H247.029L243.693 238.432L240.262 248.945ZM269.861 256L259.963 239.252V256H256.135V234.029H260.893L270.613 250.6V234.029H274.441V256H269.861ZM286.992 236.791V256H282.809V236.791H276.848V234.029H292.871V236.791H286.992Z" fill="#4528B6"/>
<path d="M587.947 150.029L595.221 172H591.023L589.41 166.955H581.535L579.936 172H575.725L582.943 150.029H587.947ZM582.096 164.945H588.863L585.527 154.432L582.096 164.945ZM606.24 152.791V172H602.057V152.791H596.096V150.029H612.119V152.791H606.24ZM622.838 152.791V172H618.654V152.791H612.693V150.029H628.717V152.791H622.838ZM640.297 149.646C641.773 149.646 643.127 149.915 644.357 150.453C645.597 150.982 646.6 151.747 647.365 152.75C648.878 154.728 649.635 157.453 649.635 160.926C649.644 166.914 647.661 170.583 643.688 171.932C642.612 172.296 641.309 172.479 639.777 172.479C638.255 172.479 636.87 172.201 635.621 171.645C634.382 171.079 633.388 170.273 632.641 169.225C631.182 167.183 630.453 164.376 630.453 160.803C630.453 156.592 631.565 153.538 633.789 151.643C635.357 150.312 637.526 149.646 640.297 149.646ZM643.838 154.377C643.446 153.876 642.931 153.475 642.293 153.174C641.664 152.864 640.921 152.709 640.064 152.709C639.217 152.709 638.469 152.859 637.822 153.16C637.184 153.461 636.665 153.862 636.264 154.363C635.872 154.855 635.557 155.471 635.32 156.209C634.901 157.503 634.687 159.13 634.678 161.09C634.678 164.18 635.211 166.395 636.277 167.734C637.152 168.828 638.406 169.375 640.037 169.375C641.459 169.375 642.566 168.988 643.359 168.213C644.161 167.429 644.704 166.426 644.986 165.205C645.278 163.975 645.424 162.744 645.424 161.514C645.424 160.283 645.378 159.281 645.287 158.506C645.196 157.731 645.027 156.975 644.781 156.236C644.544 155.489 644.23 154.869 643.838 154.377ZM664.072 158.656C664.41 158.392 664.683 158.041 664.893 157.604C665.102 157.157 665.207 156.688 665.207 156.195C665.207 155.703 665.166 155.307 665.084 155.006C665.002 154.696 664.874 154.432 664.701 154.213C664.537 153.994 664.355 153.803 664.154 153.639C663.954 153.475 663.699 153.342 663.389 153.242C663.079 153.142 662.787 153.06 662.514 152.996C662.24 152.932 661.898 152.887 661.488 152.859C660.805 152.814 660.057 152.791 659.246 152.791H657.387V159.695H659.383C661.625 159.695 663.188 159.349 664.072 158.656ZM669.432 155.58C669.432 157.394 668.88 158.738 667.777 159.613C666.684 160.479 665.166 160.939 663.225 160.994C666.333 161.35 668.274 162.393 669.049 164.125C669.359 164.818 669.514 165.643 669.514 166.6V172H665.371V166.312C665.371 164.371 664.578 163.159 662.992 162.676C662.126 162.411 660.914 162.279 659.355 162.279H657.387V172H653.203V150.029H659.287C661.985 150.02 664.045 150.225 665.467 150.645C666.752 151.018 667.709 151.574 668.338 152.312C669.067 153.16 669.432 154.249 669.432 155.58ZM686.945 172L677.047 155.252V172H673.219V150.029H677.977L687.697 166.6V150.029H691.525V172H686.945ZM695.805 172V150.029H710.146V152.791H699.975V159.271H708.848V161.814H699.975V169.279H710.297V172H695.805ZM724.898 150.029H729.109L721.986 164.973V172H718.008V164.973L710.939 150.029H715.123L720.018 160.652L724.898 150.029ZM588.74 200.656C589.077 200.392 589.351 200.041 589.561 199.604C589.77 199.157 589.875 198.688 589.875 198.195C589.875 197.703 589.834 197.307 589.752 197.006C589.67 196.696 589.542 196.432 589.369 196.213C589.205 195.994 589.023 195.803 588.822 195.639C588.622 195.475 588.367 195.342 588.057 195.242C587.747 195.142 587.455 195.06 587.182 194.996C586.908 194.932 586.566 194.887 586.156 194.859C585.473 194.814 584.725 194.791 583.914 194.791H582.055V201.695H584.051C586.293 201.695 587.856 201.349 588.74 200.656ZM594.1 197.58C594.1 199.394 593.548 200.738 592.445 201.613C591.352 202.479 589.834 202.939 587.893 202.994C591.001 203.35 592.942 204.393 593.717 206.125C594.027 206.818 594.182 207.643 594.182 208.6V214H590.039V208.312C590.039 206.371 589.246 205.159 587.66 204.676C586.794 204.411 585.582 204.279 584.023 204.279H582.055V214H577.871V192.029H583.955C586.653 192.02 588.713 192.225 590.135 192.645C591.42 193.018 592.377 193.574 593.006 194.312C593.735 195.16 594.1 196.249 594.1 197.58ZM597.887 214V192.029H612.229V194.791H602.057V201.271H610.93V203.814H602.057V211.279H612.379V214H597.887ZM622.975 208.764L628.074 192.029H632.012L625.148 214H620.732L613.869 192.029H617.779L622.975 208.764ZM636.346 211.949V194.121H633.803V192.029H643.045V194.121H640.461V211.949H643.045V214H633.803V211.949H636.346ZM646.312 214V192.029H660.654V194.791H650.482V201.271H659.355V203.814H650.482V211.279H660.805V214H646.312ZM677.963 192.029L681.326 209.475L684.826 192.029H688.859L684.102 214.027H678.947L675.57 195.707L671.975 214H667.012L662.268 192.029H666.301L669.787 209.475L673.15 192.029H677.963ZM691.566 214V192.029H705.908V194.791H695.736V201.271H704.609V203.814H695.736V211.279H706.059V214H691.566ZM715.998 211.238C718.404 211.238 720.118 210.491 721.139 208.996C722.096 207.592 722.574 205.61 722.574 203.049C722.574 200.415 722.137 198.41 721.262 197.033C720.314 195.538 718.605 194.791 716.135 194.791H713.277V211.238H715.998ZM716.203 192.029C719.794 192.029 722.46 192.945 724.201 194.777C725.942 196.609 726.812 199.367 726.812 203.049C726.812 210.35 723.308 214 716.299 214H709.107V192.029H716.203ZM595.262 236.709C592.108 236.718 590.285 238.664 589.793 242.547C589.693 243.349 589.643 244.233 589.643 245.199C589.643 250.659 591.516 253.389 595.262 253.389C597.13 253.389 598.785 252.883 600.225 251.871L601.373 254.824C600.744 255.344 599.833 255.745 598.639 256.027C597.454 256.319 596.137 256.465 594.688 256.465C593.247 256.465 591.912 256.191 590.682 255.645C589.451 255.098 588.458 254.314 587.701 253.293C586.197 251.27 585.445 248.544 585.445 245.117C585.436 241.727 586.197 238.992 587.729 236.914C588.494 235.875 589.492 235.068 590.723 234.494C591.962 233.92 593.298 233.633 594.729 233.633C597.682 233.633 599.846 234.111 601.223 235.068L600.129 238.062C598.743 237.16 597.121 236.709 595.262 236.709ZM613.322 233.646C614.799 233.646 616.152 233.915 617.383 234.453C618.622 234.982 619.625 235.747 620.391 236.75C621.904 238.728 622.66 241.453 622.66 244.926C622.669 250.914 620.687 254.583 616.713 255.932C615.637 256.296 614.334 256.479 612.803 256.479C611.281 256.479 609.895 256.201 608.646 255.645C607.407 255.079 606.413 254.273 605.666 253.225C604.208 251.183 603.479 248.376 603.479 244.803C603.479 240.592 604.59 237.538 606.814 235.643C608.382 234.312 610.551 233.646 613.322 233.646ZM616.863 238.377C616.471 237.876 615.956 237.475 615.318 237.174C614.689 236.864 613.947 236.709 613.09 236.709C612.242 236.709 611.495 236.859 610.848 237.16C610.21 237.461 609.69 237.862 609.289 238.363C608.897 238.855 608.583 239.471 608.346 240.209C607.926 241.503 607.712 243.13 607.703 245.09C607.703 248.18 608.236 250.395 609.303 251.734C610.178 252.828 611.431 253.375 613.062 253.375C614.484 253.375 615.592 252.988 616.385 252.213C617.187 251.429 617.729 250.426 618.012 249.205C618.303 247.975 618.449 246.744 618.449 245.514C618.449 244.283 618.404 243.281 618.312 242.506C618.221 241.731 618.053 240.975 617.807 240.236C617.57 239.489 617.255 238.869 616.863 238.377ZM639.955 256L630.057 239.252V256H626.229V234.029H630.986L640.707 250.6V234.029H644.535V256H639.955ZM657.086 236.791V256H652.902V236.791H646.941V234.029H662.965V236.791H657.086ZM665.412 256V234.029H679.754V236.791H669.582V243.271H678.455V245.814H669.582V253.279H679.904V256H665.412ZM696.666 256L686.768 239.252V256H682.939V234.029H687.697L697.418 250.6V234.029H701.246V256H696.666ZM713.797 236.791V256H709.613V236.791H703.652V234.029H719.676V236.791H713.797Z" fill="#4528B6"/>
<path d="M1008.97 169.389C1011.51 169.389 1013.09 168.678 1013.7 167.256V162.717H1008.42V160.146H1017.39V172H1014.9L1014.21 169.771C1013.86 170.674 1013.18 171.348 1012.18 171.795C1011.19 172.242 1010.03 172.465 1008.7 172.465C1007.37 172.465 1006.2 172.283 1005.18 171.918C1004.16 171.553 1003.29 171.043 1002.58 170.387C1001.86 169.73 1001.27 168.928 1000.79 167.98C999.863 166.158 999.403 163.897 999.412 161.199C999.403 157.645 1000.23 154.846 1001.89 152.805C1003.6 150.69 1006.17 149.633 1009.6 149.633C1012.25 149.633 1014.41 150.234 1016.09 151.438L1014.83 154.254C1013.06 153.224 1011.31 152.709 1009.6 152.709C1006.55 152.709 1004.67 154.409 1003.94 157.809C1003.72 158.802 1003.61 159.928 1003.62 161.186C1003.62 166.654 1005.4 169.389 1008.97 169.389ZM1025.43 162.033C1025.43 164.212 1025.6 165.775 1025.95 166.723C1026.28 167.634 1026.75 168.29 1027.37 168.691C1028.1 169.165 1029.03 169.398 1030.17 169.389C1031.94 169.389 1033.17 168.874 1033.85 167.844C1034.31 167.169 1034.59 166.454 1034.69 165.697C1034.84 164.622 1034.92 163.4 1034.92 162.033V150.029H1039.1V161.979C1039.1 167.201 1037.52 170.46 1034.37 171.754C1033.22 172.228 1031.84 172.465 1030.21 172.465C1028.59 172.465 1027.2 172.232 1026.03 171.768C1024.86 171.303 1023.93 170.615 1023.24 169.703C1021.91 167.953 1021.25 165.378 1021.25 161.979V150.029H1025.43V162.033ZM1053.88 150.029L1061.15 172H1056.96L1055.34 166.955H1047.47L1045.87 172H1041.66L1048.88 150.029H1053.88ZM1048.03 164.945H1054.8L1051.46 154.432L1048.03 164.945ZM1074.77 158.656C1075.11 158.392 1075.38 158.041 1075.59 157.604C1075.8 157.157 1075.91 156.688 1075.91 156.195C1075.91 155.703 1075.87 155.307 1075.78 155.006C1075.7 154.696 1075.57 154.432 1075.4 154.213C1075.24 153.994 1075.05 153.803 1074.85 153.639C1074.65 153.475 1074.4 153.342 1074.09 153.242C1073.78 153.142 1073.49 153.06 1073.21 152.996C1072.94 152.932 1072.6 152.887 1072.19 152.859C1071.5 152.814 1070.76 152.791 1069.95 152.791H1068.09V159.695H1070.08C1072.32 159.695 1073.89 159.349 1074.77 158.656ZM1080.13 155.58C1080.13 157.394 1079.58 158.738 1078.48 159.613C1077.38 160.479 1075.87 160.939 1073.92 160.994C1077.03 161.35 1078.97 162.393 1079.75 164.125C1080.06 164.818 1080.21 165.643 1080.21 166.6V172H1076.07V166.312C1076.07 164.371 1075.28 163.159 1073.69 162.676C1072.83 162.411 1071.61 162.279 1070.05 162.279H1068.09V172H1063.9V150.029H1069.99C1072.68 150.02 1074.74 150.225 1076.17 150.645C1077.45 151.018 1078.41 151.574 1079.04 152.312C1079.77 153.16 1080.13 154.249 1080.13 155.58ZM1094.6 150.029L1101.87 172H1097.67L1096.06 166.955H1088.18L1086.58 172H1082.37L1089.59 150.029H1094.6ZM1088.74 164.945H1095.51L1092.18 154.432L1088.74 164.945ZM1118.34 172L1108.45 155.252V172H1104.62V150.029H1109.38L1119.1 166.6V150.029H1122.92V172H1118.34ZM1135.47 152.791V172H1131.29V152.791H1125.33V150.029H1141.35V152.791H1135.47ZM1143.8 172V150.029H1158.14V152.791H1147.97V159.271H1156.84V161.814H1147.97V169.279H1158.29V172H1143.8ZM1161.33 172V150.029H1175.67V152.791H1165.5V159.271H1174.37V161.814H1165.5V169.279H1175.82V172H1161.33ZM1185.76 169.238C1188.17 169.238 1189.88 168.491 1190.9 166.996C1191.86 165.592 1192.34 163.61 1192.34 161.049C1192.34 158.415 1191.9 156.41 1191.02 155.033C1190.08 153.538 1188.37 152.791 1185.9 152.791H1183.04V169.238H1185.76ZM1185.96 150.029C1189.56 150.029 1192.22 150.945 1193.96 152.777C1195.7 154.609 1196.57 157.367 1196.57 161.049C1196.57 168.35 1193.07 172 1186.06 172H1178.87V150.029H1185.96ZM1053.33 214V192.029H1067.68V194.791H1057.5V201.271H1066.38V203.814H1057.5V211.279H1067.83V214H1053.33ZM1074.51 196.855V214H1070.86V192.029H1076.34L1082.25 209.42L1088.28 192.029H1093.76V214H1090.11V196.855L1084.31 214H1080.34L1074.51 196.855ZM1108.72 192.029L1115.99 214H1111.79L1110.18 208.955H1102.31L1100.71 214H1096.5L1103.71 192.029H1108.72ZM1102.87 206.945H1109.63L1106.3 196.432L1102.87 206.945ZM1120.34 211.949V194.121H1117.8V192.029H1127.04V194.121H1124.46V211.949H1127.04V214H1117.8V211.949H1120.34ZM1130.31 214V192.029H1134.48V211.238H1144.32V214H1130.31ZM987.873 253.238C990.279 253.238 991.993 252.491 993.014 250.996C993.971 249.592 994.449 247.61 994.449 245.049C994.449 242.415 994.012 240.41 993.137 239.033C992.189 237.538 990.48 236.791 988.01 236.791H985.152V253.238H987.873ZM988.078 234.029C991.669 234.029 994.335 234.945 996.076 236.777C997.817 238.609 998.688 241.367 998.688 245.049C998.688 252.35 995.183 256 988.174 256H980.982V234.029H988.078ZM1002.27 256V234.029H1016.61V236.791H1006.44V243.271H1015.31V245.814H1006.44V253.279H1016.76V256H1002.27ZM1019.8 256V234.029H1023.97V253.238H1033.81V256H1019.8ZM1038.02 253.949V236.121H1035.48V234.029H1044.72V236.121H1042.14V253.949H1044.72V256H1035.48V253.949H1038.02ZM1055.55 250.764L1060.65 234.029H1064.59L1057.72 256H1053.31L1046.44 234.029H1050.35L1055.55 250.764ZM1067.32 256V234.029H1081.66V236.791H1071.49V243.271H1080.36V245.814H1071.49V253.279H1081.81V256H1067.32ZM1095.72 242.656C1096.05 242.392 1096.33 242.041 1096.54 241.604C1096.75 241.157 1096.85 240.688 1096.85 240.195C1096.85 239.703 1096.81 239.307 1096.73 239.006C1096.65 238.696 1096.52 238.432 1096.35 238.213C1096.18 237.994 1096 237.803 1095.8 237.639C1095.6 237.475 1095.34 237.342 1095.03 237.242C1094.72 237.142 1094.43 237.06 1094.16 236.996C1093.88 236.932 1093.54 236.887 1093.13 236.859C1092.45 236.814 1091.7 236.791 1090.89 236.791H1089.03V243.695H1091.03C1093.27 243.695 1094.83 243.349 1095.72 242.656ZM1101.08 239.58C1101.08 241.394 1100.52 242.738 1099.42 243.613C1098.33 244.479 1096.81 244.939 1094.87 244.994C1097.98 245.35 1099.92 246.393 1100.69 248.125C1101 248.818 1101.16 249.643 1101.16 250.6V256H1097.02V250.312C1097.02 248.371 1096.22 247.159 1094.64 246.676C1093.77 246.411 1092.56 246.279 1091 246.279H1089.03V256H1084.85V234.029H1090.93C1093.63 234.02 1095.69 234.225 1097.11 234.645C1098.4 235.018 1099.35 235.574 1099.98 236.312C1100.71 237.16 1101.08 238.249 1101.08 239.58ZM1115.54 234.029L1122.81 256H1118.62L1117 250.955H1109.13L1107.53 256H1103.32L1110.54 234.029H1115.54ZM1109.69 248.945H1116.46L1113.12 238.432L1109.69 248.945ZM1141.6 247.414C1141.86 248.089 1142 248.872 1142 249.766C1142 250.65 1141.88 251.424 1141.65 252.09C1141.44 252.755 1141.11 253.311 1140.67 253.758C1140.24 254.204 1139.75 254.578 1139.21 254.879C1138.66 255.171 1138 255.398 1137.24 255.562C1135.87 255.854 1134.26 256 1132.4 256H1125.56V234.029H1131.06C1135.62 234.038 1138.59 234.809 1139.96 236.34C1140.71 237.178 1141.08 238.24 1141.08 239.525C1141.08 242.305 1139.52 243.882 1136.4 244.256C1139.19 244.63 1140.93 245.682 1141.6 247.414ZM1137.92 249.766C1137.92 249 1137.83 248.385 1137.65 247.92C1137.47 247.455 1137.22 247.086 1136.92 246.812C1136.62 246.539 1136.23 246.32 1135.73 246.156C1134.9 245.883 1133.76 245.751 1132.33 245.76H1129.75V253.238H1131.97C1133.79 253.238 1135.06 253.115 1135.78 252.869C1136.53 252.605 1137.06 252.245 1137.35 251.789C1137.73 251.206 1137.92 250.531 1137.92 249.766ZM1137.05 241.494C1137.3 241.038 1137.43 240.528 1137.42 239.963C1137.42 239.398 1137.35 238.947 1137.21 238.609C1137.07 238.272 1136.87 237.999 1136.6 237.789C1136.32 237.57 1136.03 237.393 1135.72 237.256C1135.4 237.119 1135.01 237.019 1134.56 236.955C1133.77 236.846 1132.87 236.791 1131.87 236.791H1129.75V243.148H1132.33C1134.86 243.148 1136.44 242.597 1137.05 241.494ZM1146.88 253.949V236.121H1144.33V234.029H1153.58V236.121H1150.99V253.949H1153.58V256H1144.33V253.949H1146.88ZM1156.84 256V234.029H1161.01V253.238H1170.86V256H1156.84ZM1175.07 253.949V236.121H1172.53V234.029H1181.77V236.121H1179.18V253.949H1181.77V256H1172.53V253.949H1175.07ZM1193.31 236.791V256H1189.12V236.791H1183.16V234.029H1199.19V236.791H1193.31ZM1213.2 234.029H1217.41L1210.29 248.973V256H1206.31V248.973L1199.24 234.029H1203.42L1208.32 244.652L1213.2 234.029Z" fill="#4528B6"/>
<path d="M1474.68 169.949V152.121H1472.14V150.029H1481.38V152.121H1478.8V169.949H1481.38V172H1472.14V169.949H1474.68ZM1498.38 172L1488.48 155.252V172H1484.65V150.029H1489.41L1499.13 166.6V150.029H1502.96V172H1498.38ZM1516.36 152.709C1513.2 152.718 1511.38 154.664 1510.89 158.547C1510.79 159.349 1510.74 160.233 1510.74 161.199C1510.74 166.659 1512.61 169.389 1516.36 169.389C1518.22 169.389 1519.88 168.883 1521.32 167.871L1522.47 170.824C1521.84 171.344 1520.93 171.745 1519.73 172.027C1518.55 172.319 1517.23 172.465 1515.78 172.465C1514.34 172.465 1513.01 172.191 1511.78 171.645C1510.54 171.098 1509.55 170.314 1508.79 169.293C1507.29 167.27 1506.54 164.544 1506.54 161.117C1506.53 157.727 1507.29 154.992 1508.82 152.914C1509.59 151.875 1510.59 151.068 1511.82 150.494C1513.06 149.92 1514.39 149.633 1515.82 149.633C1518.78 149.633 1520.94 150.111 1522.32 151.068L1521.22 154.062C1519.84 153.16 1518.21 152.709 1516.36 152.709ZM1536.15 158.656C1536.49 158.392 1536.76 158.041 1536.97 157.604C1537.18 157.157 1537.29 156.688 1537.29 156.195C1537.29 155.703 1537.25 155.307 1537.16 155.006C1537.08 154.696 1536.95 154.432 1536.78 154.213C1536.62 153.994 1536.43 153.803 1536.23 153.639C1536.03 153.475 1535.78 153.342 1535.47 153.242C1535.16 153.142 1534.87 153.06 1534.59 152.996C1534.32 152.932 1533.98 152.887 1533.57 152.859C1532.88 152.814 1532.14 152.791 1531.33 152.791H1529.47V159.695H1531.46C1533.71 159.695 1535.27 159.349 1536.15 158.656ZM1541.51 155.58C1541.51 157.394 1540.96 158.738 1539.86 159.613C1538.76 160.479 1537.25 160.939 1535.3 160.994C1538.41 161.35 1540.35 162.393 1541.13 164.125C1541.44 164.818 1541.59 165.643 1541.59 166.6V172H1537.45V166.312C1537.45 164.371 1536.66 163.159 1535.07 162.676C1534.21 162.411 1532.99 162.279 1531.44 162.279H1529.47V172H1525.28V150.029H1531.37C1534.07 150.02 1536.12 150.225 1537.55 150.645C1538.83 151.018 1539.79 151.574 1540.42 152.312C1541.15 153.16 1541.51 154.249 1541.51 155.58ZM1545.3 172V150.029H1559.64V152.791H1549.47V159.271H1558.34V161.814H1549.47V169.279H1559.79V172H1545.3ZM1573.5 150.029L1580.78 172H1576.58L1574.97 166.955H1567.09L1565.49 172H1561.28L1568.5 150.029H1573.5ZM1567.65 164.945H1574.42L1571.08 154.432L1567.65 164.945ZM1596.58 154.295C1595.83 153.839 1594.93 153.461 1593.89 153.16C1592.86 152.859 1591.92 152.709 1591.09 152.709C1590.26 152.709 1589.6 152.741 1589.13 152.805C1588.66 152.878 1588.21 153.005 1587.79 153.188C1586.92 153.57 1586.48 154.29 1586.48 155.348C1586.48 155.977 1586.66 156.469 1587.03 156.824C1587.4 157.171 1587.91 157.458 1588.56 157.686L1593.27 159.49C1595.77 160.447 1597.35 161.792 1598.02 163.523C1598.29 164.234 1598.43 165.1 1598.43 166.121C1598.43 167.133 1598.23 168.062 1597.84 168.91C1597.45 169.749 1596.89 170.423 1596.17 170.934C1594.75 171.954 1592.8 172.465 1590.33 172.465C1587.86 172.465 1585.46 171.836 1583.13 170.578L1583.88 167.584C1585.83 168.514 1587.81 169.092 1589.81 169.32C1590.22 169.366 1590.59 169.389 1590.95 169.389C1593.28 169.389 1594.45 168.427 1594.45 166.504C1594.45 165.656 1594.23 164.986 1593.78 164.494C1593.33 163.993 1592.7 163.592 1591.88 163.291L1587.04 161.363C1584.05 160.188 1582.55 158.283 1582.55 155.648C1582.55 153.598 1583.31 152.066 1584.84 151.055C1586.27 150.107 1588.08 149.633 1590.28 149.633C1593.01 149.633 1595.41 150.239 1597.46 151.451L1596.58 154.295ZM1601.65 172V150.029H1616V152.791H1605.82V159.271H1614.7V161.814H1605.82V169.279H1616.15V172H1601.65ZM1465.55 194.709C1462.4 194.718 1460.57 196.664 1460.08 200.547C1459.98 201.349 1459.93 202.233 1459.93 203.199C1459.93 208.659 1461.8 211.389 1465.55 211.389C1467.42 211.389 1469.07 210.883 1470.51 209.871L1471.66 212.824C1471.03 213.344 1470.12 213.745 1468.93 214.027C1467.74 214.319 1466.43 214.465 1464.98 214.465C1463.54 214.465 1462.2 214.191 1460.97 213.645C1459.74 213.098 1458.75 212.314 1457.99 211.293C1456.49 209.27 1455.73 206.544 1455.73 203.117C1455.73 199.727 1456.49 196.992 1458.02 194.914C1458.78 193.875 1459.78 193.068 1461.01 192.494C1462.25 191.92 1463.59 191.633 1465.02 191.633C1467.97 191.633 1470.14 192.111 1471.51 193.068L1470.42 196.062C1469.03 195.16 1467.41 194.709 1465.55 194.709ZM1478.44 204.033C1478.44 206.212 1478.62 207.775 1478.96 208.723C1479.29 209.634 1479.76 210.29 1480.38 210.691C1481.11 211.165 1482.05 211.398 1483.19 211.389C1484.96 211.389 1486.18 210.874 1486.87 209.844C1487.32 209.169 1487.6 208.454 1487.7 207.697C1487.85 206.622 1487.93 205.4 1487.93 204.033V192.029H1492.12V203.979C1492.12 209.201 1490.54 212.46 1487.38 213.754C1486.24 214.228 1484.85 214.465 1483.23 214.465C1481.61 214.465 1480.21 214.232 1479.04 213.768C1477.88 213.303 1476.95 212.615 1476.26 211.703C1474.93 209.953 1474.26 207.378 1474.26 203.979V192.029H1478.44V204.033ZM1509.27 196.295C1508.52 195.839 1507.62 195.461 1506.58 195.16C1505.55 194.859 1504.62 194.709 1503.78 194.709C1502.95 194.709 1502.3 194.741 1501.82 194.805C1501.35 194.878 1500.9 195.005 1500.48 195.188C1499.61 195.57 1499.17 196.29 1499.17 197.348C1499.17 197.977 1499.35 198.469 1499.72 198.824C1500.09 199.171 1500.6 199.458 1501.25 199.686L1505.96 201.49C1508.46 202.447 1510.04 203.792 1510.71 205.523C1510.98 206.234 1511.12 207.1 1511.12 208.121C1511.12 209.133 1510.92 210.062 1510.53 210.91C1510.14 211.749 1509.58 212.423 1508.86 212.934C1507.44 213.954 1505.5 214.465 1503.03 214.465C1500.56 214.465 1498.15 213.836 1495.82 212.578L1496.57 209.584C1498.52 210.514 1500.5 211.092 1502.51 211.32C1502.91 211.366 1503.29 211.389 1503.64 211.389C1505.97 211.389 1507.14 210.427 1507.14 208.504C1507.14 207.656 1506.92 206.986 1506.47 206.494C1506.02 205.993 1505.39 205.592 1504.57 205.291L1499.73 203.363C1496.74 202.188 1495.25 200.283 1495.25 197.648C1495.24 195.598 1496 194.066 1497.53 193.055C1498.96 192.107 1500.77 191.633 1502.97 191.633C1505.71 191.633 1508.1 192.239 1510.15 193.451L1509.27 196.295ZM1522.62 194.791V214H1518.43V194.791H1512.47V192.029H1528.5V194.791H1522.62ZM1540.08 191.646C1541.55 191.646 1542.91 191.915 1544.14 192.453C1545.38 192.982 1546.38 193.747 1547.14 194.75C1548.66 196.728 1549.41 199.453 1549.41 202.926C1549.42 208.914 1547.44 212.583 1543.47 213.932C1542.39 214.296 1541.09 214.479 1539.56 214.479C1538.03 214.479 1536.65 214.201 1535.4 213.645C1534.16 213.079 1533.17 212.273 1532.42 211.225C1530.96 209.183 1530.23 206.376 1530.23 202.803C1530.23 198.592 1531.34 195.538 1533.57 193.643C1535.14 192.312 1537.31 191.646 1540.08 191.646ZM1543.62 196.377C1543.23 195.876 1542.71 195.475 1542.07 195.174C1541.44 194.864 1540.7 194.709 1539.84 194.709C1539 194.709 1538.25 194.859 1537.6 195.16C1536.96 195.461 1536.44 195.862 1536.04 196.363C1535.65 196.855 1535.34 197.471 1535.1 198.209C1534.68 199.503 1534.47 201.13 1534.46 203.09C1534.46 206.18 1534.99 208.395 1536.06 209.734C1536.93 210.828 1538.18 211.375 1539.82 211.375C1541.24 211.375 1542.35 210.988 1543.14 210.213C1543.94 209.429 1544.48 208.426 1544.77 207.205C1545.06 205.975 1545.2 204.744 1545.2 203.514C1545.2 202.283 1545.16 201.281 1545.07 200.506C1544.98 199.731 1544.81 198.975 1544.56 198.236C1544.32 197.489 1544.01 196.869 1543.62 196.377ZM1556.63 196.855V214H1552.98V192.029H1558.46L1564.37 209.42L1570.4 192.029H1575.88V214H1572.23V196.855L1566.44 214H1562.46L1556.63 196.855ZM1580.16 214V192.029H1594.5V194.791H1584.33V201.271H1593.21V203.814H1584.33V211.279H1594.65V214H1580.16ZM1608.56 200.656C1608.9 200.392 1609.17 200.041 1609.38 199.604C1609.59 199.157 1609.69 198.688 1609.69 198.195C1609.69 197.703 1609.65 197.307 1609.57 197.006C1609.49 196.696 1609.36 196.432 1609.19 196.213C1609.02 195.994 1608.84 195.803 1608.64 195.639C1608.44 195.475 1608.18 195.342 1607.88 195.242C1607.57 195.142 1607.27 195.06 1607 194.996C1606.73 194.932 1606.38 194.887 1605.97 194.859C1605.29 194.814 1604.54 194.791 1603.73 194.791H1601.87V201.695H1603.87C1606.11 201.695 1607.67 201.349 1608.56 200.656ZM1613.92 197.58C1613.92 199.394 1613.37 200.738 1612.26 201.613C1611.17 202.479 1609.65 202.939 1607.71 202.994C1610.82 203.35 1612.76 204.393 1613.54 206.125C1613.85 206.818 1614 207.643 1614 208.6V214H1609.86V208.312C1609.86 206.371 1609.06 205.159 1607.48 204.676C1606.61 204.411 1605.4 204.279 1603.84 204.279H1601.87V214H1597.69V192.029H1603.77C1606.47 192.02 1608.53 192.225 1609.95 192.645C1611.24 193.018 1612.2 193.574 1612.82 194.312C1613.55 195.16 1613.92 196.249 1613.92 197.58ZM1630.76 196.295C1630.01 195.839 1629.11 195.461 1628.07 195.16C1627.04 194.859 1626.1 194.709 1625.27 194.709C1624.44 194.709 1623.78 194.741 1623.31 194.805C1622.84 194.878 1622.39 195.005 1621.97 195.188C1621.1 195.57 1620.66 196.29 1620.66 197.348C1620.66 197.977 1620.84 198.469 1621.21 198.824C1621.58 199.171 1622.09 199.458 1622.74 199.686L1627.45 201.49C1629.95 202.447 1631.53 203.792 1632.2 205.523C1632.47 206.234 1632.61 207.1 1632.61 208.121C1632.61 209.133 1632.41 210.062 1632.02 210.91C1631.63 211.749 1631.07 212.423 1630.35 212.934C1628.93 213.954 1626.98 214.465 1624.51 214.465C1622.04 214.465 1619.64 213.836 1617.31 212.578L1618.06 209.584C1620.01 210.514 1621.99 211.092 1623.99 211.32C1624.4 211.366 1624.77 211.389 1625.13 211.389C1627.46 211.389 1628.63 210.427 1628.63 208.504C1628.63 207.656 1628.41 206.986 1627.96 206.494C1627.51 205.993 1626.88 205.592 1626.06 205.291L1621.22 203.363C1618.23 202.188 1616.73 200.283 1616.73 197.648C1616.73 195.598 1617.49 194.066 1619.02 193.055C1620.45 192.107 1622.26 191.633 1624.46 191.633C1627.19 191.633 1629.59 192.239 1631.64 193.451L1630.76 196.295ZM1469.69 246.047C1468.6 246.311 1467.73 246.735 1467.1 247.318C1466.47 247.902 1466.15 248.74 1466.15 249.834C1466.15 252.304 1467.81 253.539 1471.13 253.539C1474.17 253.539 1476.02 252.983 1476.68 251.871L1469.69 246.047ZM1477.91 245.705L1477.9 244.037H1481.22C1481.22 246.307 1481.05 248.471 1480.7 250.531L1480.52 251.461L1483.99 254.387L1482.29 256.492L1479.11 253.826C1477.83 255.64 1475.17 256.547 1471.13 256.547C1466.72 256.547 1463.99 255.248 1462.95 252.65C1462.66 251.921 1462.52 251.146 1462.52 250.326C1462.52 249.506 1462.6 248.799 1462.78 248.207C1462.95 247.615 1463.18 247.104 1463.46 246.676C1463.74 246.247 1464.1 245.855 1464.54 245.5C1465.27 244.898 1466.22 244.374 1467.4 243.928C1466.63 243.454 1465.96 242.793 1465.37 241.945C1464.79 241.098 1464.5 240.232 1464.5 239.348C1464.5 238.464 1464.66 237.716 1464.99 237.105C1465.33 236.486 1465.79 235.989 1466.37 235.615C1467.55 234.859 1468.99 234.48 1470.71 234.48C1473.1 234.48 1474.84 235.164 1475.91 236.531C1476.48 237.242 1476.76 238.113 1476.76 239.143C1476.76 241.886 1475.31 243.755 1472.4 244.748L1477.83 249.232C1477.88 248.376 1477.91 247.2 1477.91 245.705ZM1470.17 242.574C1471.43 242.219 1472.33 241.781 1472.88 241.262C1473.41 240.77 1473.67 240.15 1473.67 239.402C1473.67 238.646 1473.41 238.076 1472.89 237.693C1472.38 237.311 1471.68 237.119 1470.79 237.119C1468.88 237.119 1467.93 237.88 1467.93 239.402C1467.93 240.077 1468.15 240.692 1468.6 241.248C1469.06 241.804 1469.58 242.246 1470.17 242.574ZM1504.28 242.656C1504.62 242.392 1504.89 242.041 1505.1 241.604C1505.31 241.157 1505.42 240.688 1505.42 240.195C1505.42 239.703 1505.38 239.307 1505.29 239.006C1505.21 238.696 1505.09 238.432 1504.91 238.213C1504.75 237.994 1504.57 237.803 1504.37 237.639C1504.16 237.475 1503.91 237.342 1503.6 237.242C1503.29 237.142 1503 237.06 1502.72 236.996C1502.45 236.932 1502.11 236.887 1501.7 236.859C1501.02 236.814 1500.27 236.791 1499.46 236.791H1497.6V243.695H1499.59C1501.84 243.695 1503.4 243.349 1504.28 242.656ZM1509.64 239.58C1509.64 241.394 1509.09 242.738 1507.99 243.613C1506.89 244.479 1505.38 244.939 1503.44 244.994C1506.54 245.35 1508.49 246.393 1509.26 248.125C1509.57 248.818 1509.72 249.643 1509.72 250.6V256H1505.58V250.312C1505.58 248.371 1504.79 247.159 1503.2 246.676C1502.34 246.411 1501.12 246.279 1499.57 246.279H1497.6V256H1493.41V234.029H1499.5C1502.2 234.02 1504.26 234.225 1505.68 234.645C1506.96 235.018 1507.92 235.574 1508.55 236.312C1509.28 237.16 1509.64 238.249 1509.64 239.58ZM1513.43 256V234.029H1527.77V236.791H1517.6V243.271H1526.47V245.814H1517.6V253.279H1527.92V256H1513.43ZM1538.52 250.764L1543.62 234.029H1547.55L1540.69 256H1536.28L1529.41 234.029H1533.32L1538.52 250.764ZM1550.29 256V234.029H1564.63V236.791H1554.46V243.271H1563.33V245.814H1554.46V253.279H1564.78V256H1550.29ZM1581.54 256L1571.64 239.252V256H1567.82V234.029H1572.57L1582.29 250.6V234.029H1586.12V256H1581.54ZM1594.37 246.033C1594.37 248.212 1594.54 249.775 1594.89 250.723C1595.21 251.634 1595.69 252.29 1596.31 252.691C1597.04 253.165 1597.97 253.398 1599.11 253.389C1600.88 253.389 1602.11 252.874 1602.79 251.844C1603.24 251.169 1603.52 250.454 1603.62 249.697C1603.78 248.622 1603.86 247.4 1603.86 246.033V234.029H1608.04V245.979C1608.04 251.201 1606.46 254.46 1603.31 255.754C1602.16 256.228 1600.77 256.465 1599.15 256.465C1597.53 256.465 1596.14 256.232 1594.97 255.768C1593.8 255.303 1592.87 254.615 1592.18 253.703C1590.85 251.953 1590.18 249.378 1590.18 245.979V234.029H1594.37V246.033ZM1612.14 256V234.029H1626.48V236.791H1616.31V243.271H1625.18V245.814H1616.31V253.279H1626.63V256H1612.14Z" fill="#4528B6"/>
<path d="M205.977 37C214.087 41.7453 222.557 45.7152 231.441 48.7858C233.964 49.6588 236.513 50.4544 239.087 51.1686C240.619 51.5939 240.977 52.0721 240.973 53.6471C240.949 60.4435 241.148 67.2439 240.867 74.0342C240.572 81.1887 238.827 88.0176 235.612 94.4376C230.704 104.237 223.343 111.705 213.857 117.108C211.536 118.43 209.123 119.58 206.451 120.079C204.766 120.394 203.228 119.867 201.727 119.277C195.722 116.914 190.568 113.235 185.942 108.806C180.002 103.12 175.632 96.3931 172.912 88.6179C170.855 82.7413 169.998 76.6693 170 70.461C170.002 64.8835 170 59.306 170 53.7264C170 52.0721 170.334 51.6021 171.89 51.1686C183.193 48.035 193.889 43.4749 204.011 37.5555C204.337 37.3642 204.669 37.1872 204.998 37.002C205.324 37.002 205.647 37.002 205.973 37.002L205.977 37ZM173.528 64.7004C173.528 66.5948 173.516 68.4913 173.53 70.3857C173.571 75.4077 174.114 80.3585 175.542 85.1953C177.941 93.3123 182.23 100.278 188.294 106.154C192.027 109.774 196.162 112.867 200.89 115.061C205.491 117.195 205.411 117.069 209.678 115.287C209.853 115.213 210.016 115.116 210.185 115.032C216.942 111.685 222.606 106.986 227.256 101.075C233.404 93.2594 236.715 84.3203 237.301 74.4269C237.685 67.9398 237.406 61.4344 237.461 54.9372C237.465 54.4875 237.27 54.3287 236.888 54.2168C235.671 53.8628 234.456 53.5006 233.25 53.1119C223.811 50.0759 214.785 46.0958 206.178 41.1735C205.706 40.9028 205.35 40.852 204.85 41.1409C195.175 46.7306 184.967 51.0771 174.232 54.1802C173.701 54.3328 173.506 54.5424 173.512 55.1142C173.542 58.3089 173.526 61.5036 173.526 64.6983L173.528 64.7004Z" fill="url(#paint4_linear_2012_2)"/>
<path d="M183.862 78.6553C183.936 76.6611 185.016 74.8562 187.218 73.8714C189.342 72.9211 191.454 73.1429 193.191 74.7219C195.291 76.6326 197.271 78.6777 199.251 80.7166C199.778 81.2599 200.026 81.1703 200.504 80.6881C206.018 75.1391 211.56 69.6185 217.084 64.0797C218.891 62.2687 220.989 61.6297 223.439 62.4905C226.957 63.7276 228.277 68.2491 225.996 71.1915C225.748 71.5109 225.486 71.8243 225.201 72.1112C218.199 79.1212 211.198 86.1293 204.189 93.1312C202.058 95.2596 199.381 95.6625 196.951 94.2564C196.455 93.9695 196.028 93.5951 195.625 93.1922C192.331 89.9019 189.037 86.6115 185.749 83.3151C184.434 81.9965 183.873 80.7003 183.862 78.6532V78.6553ZM223.579 67.9906C223.587 66.7677 222.948 65.966 221.919 65.7116C220.916 65.4654 220.216 65.9538 219.555 66.6151C213.566 72.6097 207.574 78.5983 201.582 84.5868C200.28 85.8891 199.458 85.8891 198.154 84.5868C195.836 82.2732 193.527 79.9494 191.199 77.646C190.227 76.6835 188.88 76.6428 188.013 77.5035C187.146 78.3663 187.175 79.7276 188.133 80.6901C191.492 84.068 194.86 87.4377 198.239 90.7952C199.271 91.8187 200.482 91.7922 201.531 90.7687C202.366 89.9568 203.18 89.1245 204.004 88.3025C210.205 82.1003 216.405 75.8981 222.609 69.6999C223.14 69.1709 223.612 68.6276 223.577 67.9866L223.579 67.9906Z" fill="url(#paint5_linear_2012_2)"/>
<path d="M176.912 61.6157C176.912 60.5616 176.897 59.5076 176.916 58.4535C176.934 57.4218 177.339 56.8297 178.316 56.5102C181.412 55.4928 184.481 54.3981 187.535 53.2565C188.633 52.8455 189.606 53.2443 189.978 54.1763C190.367 55.1469 189.907 56.1033 188.766 56.553C186.283 57.5297 183.781 58.4515 181.237 59.2532C180.67 59.4323 180.423 59.6785 180.45 60.3195C180.507 61.7764 180.476 63.2395 180.464 64.6985C180.456 65.9336 179.785 66.7109 178.739 66.7313C177.658 66.7516 176.942 65.9702 176.918 64.6985C176.897 63.6709 176.914 62.6433 176.914 61.6177L176.912 61.6157Z" fill="url(#paint6_linear_2012_2)"/>
<path d="M225.361 93.1554C226.734 93.1391 227.554 94.5534 226.856 95.8089C226.478 96.4905 226 97.1193 225.54 97.7522C222.911 101.358 219.782 104.477 216.282 107.235C215.285 108.02 214.29 108.02 213.615 107.235C212.889 106.39 213.035 105.334 214.073 104.49C216.638 102.406 219.064 100.184 221.159 97.6158C222.067 96.5068 222.911 95.3531 223.721 94.1708C224.232 93.424 224.688 93.1595 225.361 93.1514V93.1554Z" fill="url(#paint7_linear_2012_2)"/>
<path d="M210.728 107.194C211.676 107.206 212.471 108.032 212.445 108.972C212.419 109.904 211.531 110.753 210.583 110.753C209.611 110.753 208.84 109.976 208.852 109.001C208.864 107.973 209.688 107.18 210.728 107.194Z" fill="url(#paint8_linear_2012_2)"/>
<path d="M195.083 52.7294C195.106 53.6776 194.267 54.514 193.281 54.5303C192.375 54.5445 191.541 53.696 191.539 52.7599C191.537 51.8605 192.379 51.0181 193.305 50.9937C194.217 50.9693 195.063 51.7954 195.085 52.7294H195.083Z" fill="url(#paint9_linear_2012_2)"/>
<path d="M653.636 37.002C655.056 37.4832 656.413 38.0436 657.426 39.2294C659.844 42.0659 659.555 46.0901 656.699 48.484C656.278 48.8373 656.108 49.1865 656.128 49.7185C656.165 50.6626 656.171 51.6108 656.128 52.555C656.102 53.1417 656.331 53.2818 656.881 53.2737C659.005 53.2473 661.129 53.2636 663.252 53.2636C669.595 53.2636 675.939 53.2636 682.281 53.2636C682.883 53.2636 683.48 53.292 684.055 53.4747C685.608 53.9701 686.523 55.4239 686.326 57.0645C686.134 58.6827 684.849 59.8786 683.141 59.9944C682.49 60.039 681.835 60.0086 681.181 60.0106C680.581 60.0133 680.398 60.2746 680.634 60.7943C682.373 64.5973 684.115 68.4002 685.854 72.2032C687.807 76.4711 689.763 80.739 691.711 85.011C691.916 85.4597 692.088 85.7907 692.722 85.8536C693.71 85.9552 694.293 87.1023 693.849 88.0323C693.07 89.6627 692.276 91.2971 691.347 92.8443C690.436 94.359 688.922 94.962 687.183 94.9661C681.031 94.9783 674.877 94.9803 668.725 94.9661C666.565 94.962 664.995 93.9773 664.034 92.0423C663.42 90.8098 662.765 89.5977 662.156 88.3612C661.519 87.0698 662.023 86.0546 663.449 85.809C663.919 85.7277 663.972 85.4008 664.112 85.0983C667.156 78.4508 670.198 71.8032 673.24 65.1536C673.903 63.7059 674.564 62.2583 675.221 60.8086C675.329 60.571 675.516 60.3537 675.46 60.0086H674.738C668.829 60.0086 662.923 60.0228 657.014 59.9903C656.276 59.9862 656.087 60.1954 656.124 60.8959C656.184 62.0004 656.155 63.111 656.132 64.2176C656.114 65.1435 655.607 65.7059 654.868 65.6836C654.117 65.6612 653.655 65.0968 653.649 64.1567C653.639 62.4552 653.639 60.7517 653.649 59.0502C653.655 58.0147 654.08 57.5782 655.118 57.5112C655.39 57.4929 655.662 57.5051 655.934 57.5051C664.672 57.5051 673.412 57.5051 682.15 57.5031C682.502 57.5031 682.86 57.499 683.206 57.4421C683.64 57.3731 683.861 57.0746 683.859 56.6422C683.857 56.1711 683.595 55.8828 683.137 55.8077C682.871 55.765 682.594 55.7853 682.322 55.7853C673.421 55.7853 664.519 55.7853 655.615 55.7853C654.021 55.7853 653.645 55.4117 653.643 53.8341C653.643 52.7539 653.62 51.6717 653.653 50.5915C653.667 50.1063 653.548 49.8647 653.021 49.9845C652.491 50.1063 651.789 49.7246 651.458 50.086C651.106 50.4697 651.359 51.1682 651.345 51.7286C651.325 52.5935 651.353 53.4585 651.335 54.3214C651.316 55.2391 650.852 55.7102 649.935 55.7772C649.692 55.7955 649.446 55.7833 649.201 55.7833C640.352 55.7833 631.506 55.7833 622.657 55.7833C622.385 55.7833 622.107 55.761 621.843 55.8056C621.385 55.8828 621.125 56.1731 621.125 56.6442C621.125 57.0767 621.35 57.3711 621.783 57.4401C622.129 57.4949 622.487 57.499 622.839 57.499C631.577 57.501 640.317 57.501 649.056 57.501C649.328 57.501 649.602 57.4909 649.872 57.5071C650.905 57.5741 651.333 58.0107 651.335 59.0502C651.343 62.0491 651.339 65.048 651.339 68.047C651.339 80.205 651.347 92.3631 651.32 104.521C651.32 105.266 651.513 105.478 652.257 105.447C653.639 105.388 653.641 105.433 653.641 104.093C653.641 93.0433 653.641 81.9918 653.641 70.9423C653.641 69.6469 654.031 69.0297 654.864 69.0053C655.731 68.9789 656.135 69.5962 656.135 70.9626C656.135 82.1217 656.145 93.2788 656.114 104.438C656.112 105.274 656.337 105.469 657.151 105.451C659.6 105.396 662.051 105.427 664.502 105.433C667.324 105.439 668.965 107.067 668.975 109.859C668.979 110.915 669.511 111.458 670.573 111.488C673.322 111.565 674.861 113.148 674.865 115.902C674.865 116.767 674.873 117.632 674.863 118.494C674.851 119.544 674.417 119.997 673.39 119.997C659.451 120.001 645.512 120.001 631.573 119.997C630.585 119.997 630.137 119.544 630.121 118.557C630.106 117.64 630.114 116.72 630.119 115.802C630.127 113.201 631.645 111.632 634.268 111.485C634.826 111.455 635.546 111.739 635.9 111.329C636.238 110.937 635.997 110.241 636.005 109.678C636.046 107.134 637.697 105.459 640.256 105.437C642.842 105.415 645.428 105.417 648.014 105.443C648.612 105.449 648.863 105.348 648.863 104.663C648.843 90.02 648.847 75.3767 648.853 60.7334C648.853 60.2786 648.835 59.9923 648.221 59.9944C642.069 60.0167 635.915 60.0106 629.763 60.0126C629.685 60.0126 629.607 60.039 629.517 60.0532C629.482 60.4065 629.699 60.6705 629.83 60.9547C633.482 68.9546 637.144 76.9523 640.798 84.9521C641.015 85.4252 641.195 85.7826 641.862 85.8557C642.84 85.9633 643.409 87.1247 642.963 88.0607C642.183 89.6911 641.39 91.3276 640.444 92.8646C639.524 94.361 638.008 94.962 636.267 94.9641C630.114 94.9722 623.96 94.9762 617.808 94.962C615.68 94.9559 614.126 93.9874 613.168 92.089C612.548 90.8586 611.906 89.6403 611.294 88.4059C610.627 87.0597 611.11 86.0749 612.589 85.8049C612.933 85.742 613.023 85.543 613.133 85.2993C616.892 77.0802 620.646 68.8591 624.421 60.6482C624.691 60.0593 624.525 59.972 623.971 59.9984C623.318 60.0289 622.663 60.0248 622.011 59.9984C620.096 59.9253 618.694 58.569 618.618 56.7396C618.547 55.0036 619.797 53.5945 621.653 53.3346C622.027 53.2818 622.412 53.2656 622.79 53.2656C631.148 53.2615 639.505 53.2514 647.863 53.2798C648.634 53.2818 648.98 53.1133 648.857 52.3093C648.808 51.9925 648.826 51.6595 648.853 51.3387C648.974 49.9357 648.659 48.8555 647.578 47.7043C644.334 44.2486 646.038 38.7096 650.608 37.2863C650.856 37.2091 651.157 37.2294 651.351 37H653.639L653.636 37.002ZM627.076 60.904C626.931 61.17 626.847 61.304 626.782 61.4461C623.167 69.3363 619.562 77.2305 615.93 85.1125C615.625 85.7744 615.883 85.7927 616.431 85.7907C623.557 85.7805 630.683 85.7846 637.809 85.7785C637.981 85.7785 638.186 85.8597 638.38 85.6242C634.638 77.4396 630.886 69.2347 627.076 60.904ZM677.864 61.0096C674.104 69.2347 670.343 77.4579 666.552 85.748C666.806 85.7663 666.935 85.7846 667.066 85.7846C674.245 85.7846 681.426 85.7765 688.605 85.7988C689.33 85.8008 689.254 85.5694 689.027 85.0719C685.442 77.2569 681.87 69.4378 678.288 61.6207C678.192 61.4096 678.159 61.1415 677.864 61.0096ZM652.499 117.565C658.622 117.565 664.746 117.565 670.869 117.565C671.889 117.565 672.396 117.051 672.389 116.023C672.379 114.48 671.89 113.995 670.339 113.995C663.019 113.995 655.697 113.995 648.376 113.993C648.078 113.993 647.769 114.017 647.482 113.948C646.834 113.792 646.42 113.398 646.455 112.687C646.488 112.032 646.866 111.65 647.513 111.555C647.834 111.506 648.162 111.496 648.487 111.496C653.929 111.492 659.373 111.494 664.815 111.494C665.924 111.494 666.468 110.93 666.446 109.802C666.419 108.42 665.967 107.975 664.574 107.955C664.357 107.951 664.138 107.955 663.921 107.955C656.382 107.955 648.843 107.955 641.306 107.955C638.695 107.955 638.497 108.178 638.527 110.781C638.533 111.356 638.72 111.514 639.278 111.508C640.254 111.498 641.238 111.4 642.21 111.573C642.783 111.674 643.116 112.038 643.176 112.616C643.237 113.232 642.955 113.648 642.382 113.885C642.095 114.005 641.799 113.997 641.498 113.997C639.43 113.997 637.361 113.997 635.293 113.997C632.842 113.997 632.617 114.249 632.582 116.681C632.572 117.382 632.737 117.589 633.474 117.585C639.814 117.552 646.157 117.567 652.497 117.567L652.499 117.565ZM613.995 88.2515C614.606 89.4028 615.122 90.4363 615.699 91.4332C616.092 92.1093 616.746 92.4525 617.536 92.4525C623.878 92.4585 630.223 92.4585 636.565 92.4525C637.292 92.4525 637.901 92.1479 638.308 91.5611C639.012 90.5439 639.485 89.4048 640.074 88.2475H613.995V88.2515ZM664.899 88.2515C665.452 89.3277 665.918 90.2982 666.444 91.2362C666.884 92.02 667.575 92.4565 668.508 92.4565C674.797 92.4565 681.085 92.4565 687.374 92.4565C688.037 92.4565 688.636 92.2454 689.043 91.7438C689.876 90.7144 690.303 89.4637 690.977 88.2495H664.901L664.899 88.2515ZM652.464 47.5439C654.639 47.552 656.56 45.6983 656.574 43.5745C656.591 41.3613 654.741 39.4812 652.519 39.4527C650.322 39.4243 648.434 41.2923 648.409 43.5176C648.385 45.6272 650.308 47.5338 652.464 47.5419V47.5439Z" fill="url(#paint10_linear_2012_2)"/>
<path d="M1057 49.8523C1057.34 48.9746 1057.51 48.0397 1057.98 47.2028C1059.92 43.7429 1063.93 42.0874 1067.62 43.5102C1072.4 45.3514 1077.1 47.3906 1081.82 49.3604C1099.41 56.6926 1117 64.0308 1134.59 71.3712C1138.17 72.8694 1140.08 75.5578 1140 79.1504C1139.91 82.8369 1137.99 85.2741 1134.66 86.6622C1124.49 90.9059 1114.31 95.1456 1104.14 99.3914C1092.32 104.321 1080.49 109.214 1068.7 114.205C1064.17 116.123 1060.35 114.309 1058.41 111.543C1057.69 110.524 1057.38 109.355 1057 108.201V105.756C1057.29 105.485 1057.2 105.095 1057.28 104.766C1059.43 96.3601 1061.55 87.9461 1063.68 79.5382C1063.78 79.181 1063.78 78.8707 1063.68 78.5135C1062.01 71.9672 1060.36 65.4148 1058.7 58.8665C1058.14 56.6742 1057.57 54.486 1057 52.2957C1057 51.4812 1057 50.6668 1057 49.8503L1057 49.8523ZM1080.68 81.4692C1076.77 81.4692 1072.85 81.4835 1068.93 81.4529C1068.39 81.4488 1068.2 81.6284 1068.07 82.1265C1066.08 90.022 1064.08 97.9115 1062.07 105.805C1061.8 106.903 1061.82 107.95 1062.57 108.879C1063.62 110.177 1064.96 110.4 1066.89 109.594C1086.37 101.469 1105.85 93.3452 1125.32 85.219C1127.91 84.1392 1130.51 83.0777 1133.08 81.9673C1134.9 81.1794 1135.58 79.4606 1134.83 77.6868C1134.43 76.7396 1133.62 76.2845 1132.72 75.9109C1114.36 68.2562 1096.01 60.5954 1077.65 52.9387C1073.94 51.3935 1070.24 49.8421 1066.52 48.3112C1064.85 47.6212 1063.43 47.9764 1062.48 49.2869C1061.78 50.2483 1061.84 51.2894 1062.12 52.3876C1064.1 60.1729 1066.07 67.9602 1068.02 75.7537C1068.18 76.3824 1068.4 76.6008 1069.09 76.5988C1076.73 76.5682 1084.38 76.5784 1092.02 76.5825C1092.37 76.5825 1092.73 76.5784 1093.06 76.6702C1094.29 77.0091 1094.98 78.1338 1094.79 79.4218C1094.63 80.5854 1093.66 81.4549 1092.44 81.459C1088.52 81.4733 1084.6 81.4631 1080.69 81.4651L1080.68 81.4692Z" fill="url(#paint11_linear_2012_2)"/>
<path d="M1577.51 37C1578.39 37.5739 1578.62 38.4287 1578.61 39.4259C1578.59 42.0513 1578.6 44.6786 1578.6 47.306C1578.6 47.4424 1578.6 47.5767 1578.6 47.7131C1578.55 48.9341 1577.88 49.6933 1576.89 49.6668C1575.93 49.6424 1575.29 48.8955 1575.27 47.709C1575.25 46.091 1575.27 44.4731 1575.27 42.8287C1574.86 42.8775 1574.72 43.1686 1574.52 43.366C1569.22 48.6635 1563.91 53.9671 1558.61 59.2687C1557.27 60.6078 1556.63 60.6058 1555.28 59.2626C1553.71 57.6935 1552.14 56.1223 1550.57 54.5532C1550.03 54.0037 1549.49 53.9942 1548.95 54.5247C1540.05 63.4285 1531.15 72.3303 1522.25 81.2321C1522 81.4804 1521.75 81.7286 1521.46 81.9301C1520.83 82.3717 1519.98 82.3107 1519.44 81.8223C1518.88 81.3114 1518.75 80.4404 1519.18 79.7606C1519.34 79.5124 1519.55 79.2905 1519.75 79.0809C1529.23 69.6012 1538.7 60.1234 1548.18 50.6457C1549.35 49.4796 1550.13 49.4755 1551.28 50.6254C1553.01 52.3451 1554.74 54.0648 1556.45 55.7987C1556.78 56.1366 1556.99 56.275 1557.41 55.8557C1562.46 50.7678 1567.54 45.6983 1572.62 40.6246C1572.69 40.5513 1572.75 40.4659 1572.92 40.2501C1571.81 40.2501 1570.83 40.2501 1569.85 40.2501C1569.06 40.2501 1568.28 40.2501 1567.5 40.2501C1566.28 40.2501 1565.65 39.9103 1565.39 39.1206C1565.13 38.3086 1565.44 37.696 1566.46 37.002H1577.51L1577.51 37Z" fill="url(#paint12_linear_2012_2)"/>
<path d="M1544.33 120.197C1531.88 120.197 1519.43 120.197 1506.97 120.197C1505.8 120.197 1505.14 119.727 1505.02 118.807C1504.88 117.806 1505.54 116.996 1506.58 116.959C1507.58 116.924 1508.58 116.91 1509.58 116.963C1510.19 116.996 1510.36 116.804 1510.35 116.198C1510.33 111.731 1510.36 107.262 1510.33 102.794C1510.32 100.81 1511.03 99.2694 1512.85 98.3434C1513.51 98.0036 1514.23 97.9161 1514.97 97.9201C1517.41 97.9303 1519.85 97.9954 1522.28 97.9039C1524.83 97.8062 1527.13 99.5829 1527.11 102.798C1527.07 107.213 1527.12 111.625 1527.08 116.039C1527.07 116.782 1527.27 116.983 1528.01 116.969C1530.39 116.92 1532.78 116.922 1535.16 116.969C1535.88 116.983 1536.1 116.81 1536.1 116.051C1536.07 107.036 1536.08 98.0178 1536.08 89.0021C1536.08 86.623 1537.34 84.9236 1539.5 84.3904C1539.89 84.2948 1540.31 84.2866 1540.71 84.2866C1543.2 84.2785 1545.69 84.2704 1548.18 84.2866C1551.03 84.3029 1552.81 86.1162 1552.81 88.9858C1552.81 98.0015 1552.82 107.019 1552.79 116.035C1552.79 116.755 1552.95 116.99 1553.71 116.973C1556.12 116.918 1558.53 116.916 1560.94 116.973C1561.72 116.992 1561.85 116.725 1561.85 116.019C1561.83 104.431 1561.84 92.8404 1561.84 81.2522C1561.84 76.0809 1561.85 70.9096 1561.83 65.7362C1561.82 63.756 1562.52 62.2113 1564.32 61.2629C1564.91 60.9536 1565.55 60.8355 1566.2 60.8315C1568.88 60.8132 1571.57 60.7297 1574.24 60.8518C1576.92 60.9739 1578.5 62.7364 1578.6 65.437C1578.61 65.7077 1578.6 65.9784 1578.6 66.2491C1578.6 82.8193 1578.61 99.3916 1578.58 115.962C1578.58 116.786 1578.78 117.049 1579.6 116.969C1580.38 116.892 1581.17 116.943 1581.96 116.955C1583.03 116.971 1583.72 117.596 1583.74 118.544C1583.76 119.525 1583.05 120.197 1581.94 120.197C1575.96 120.203 1569.97 120.201 1563.99 120.201C1557.44 120.201 1550.89 120.201 1544.33 120.201V120.197ZM1565.14 90.8134C1565.14 99.2593 1565.15 107.705 1565.13 116.153C1565.13 116.774 1565.27 116.975 1565.92 116.967C1568.79 116.928 1571.66 116.939 1574.53 116.961C1575.07 116.965 1575.28 116.869 1575.28 116.267C1575.26 99.3468 1575.27 82.4285 1575.26 65.5083C1575.26 64.4479 1574.92 64.1243 1573.84 64.1223C1571.51 64.1162 1569.18 64.1203 1566.85 64.1223C1565.4 64.1223 1565.15 64.3747 1565.15 65.8013C1565.15 74.1393 1565.15 82.4774 1565.15 90.8154L1565.14 90.8134ZM1549.56 102.737C1549.56 98.1908 1549.57 93.6443 1549.56 89.0998C1549.56 87.9397 1549.15 87.5388 1547.99 87.5368C1545.64 87.5307 1543.29 87.5307 1540.93 87.5368C1539.77 87.5388 1539.36 87.9214 1539.36 89.0896C1539.36 98.1542 1539.36 107.221 1539.35 116.285C1539.35 116.823 1539.51 116.965 1540.04 116.961C1542.94 116.937 1545.83 116.928 1548.73 116.965C1549.39 116.973 1549.58 116.825 1549.58 116.133C1549.55 111.668 1549.56 107.202 1549.56 102.737ZM1513.64 109.364C1513.64 111.637 1513.66 113.91 1513.63 116.182C1513.62 116.758 1513.73 116.973 1514.37 116.965C1517.26 116.926 1520.16 116.933 1523.05 116.961C1523.62 116.967 1523.78 116.812 1523.78 116.243C1523.75 111.698 1523.77 107.152 1523.76 102.607C1523.76 101.553 1523.4 101.191 1522.35 101.187C1519.91 101.176 1517.48 101.176 1515.04 101.187C1514.03 101.191 1513.64 101.596 1513.64 102.627C1513.63 104.872 1513.64 107.119 1513.64 109.364Z" fill="url(#paint13_linear_2012_2)"/>
<path d="M1515.03 87.897C1514.14 87.8827 1513.44 87.1725 1513.44 86.2912C1513.44 85.3978 1514.22 84.6163 1515.09 84.6448C1515.93 84.6713 1516.69 85.4507 1516.7 86.279C1516.7 87.1562 1515.92 87.9133 1515.03 87.899V87.897Z" fill="url(#paint14_linear_2012_2)"/>
<defs>
<filter id="filter0_d_2012_2" x="0.8" y="0.8" width="410.4" height="311.4" filterUnits="userSpaceOnUse" color-interpolation-filters="sRGB">
<feFlood flood-opacity="0" result="BackgroundImageFix"/>
<feColorMatrix in="SourceAlpha" type="matrix" values="0 0 0 0 0 0 0 0 0 0 0 0 0 0 0 0 0 0 127 0" result="hardAlpha"/>
<feOffset dy="4"/>
<feGaussianBlur stdDeviation="6.1"/>
<feComposite in2="hardAlpha" operator="out"/>
<feColorMatrix type="matrix" values="0 0 0 0 0.406902 0 0 0 0 0.329412 0 0 0 0 0.533333 0 0 0 1 0"/>
<feBlend mode="normal" in2="BackgroundImageFix" result="effect1_dropShadow_2012_2"/>
<feBlend mode="normal" in="SourceGraphic" in2="effect1_dropShadow_2012_2" result="shape"/>
</filter>
<filter id="filter1_d_2012_2" x="446.8" y="0.8" width="410.4" height="311.4" filterUnits="userSpaceOnUse" color-interpolation-filters="sRGB">
<feFlood flood-opacity="0" result="BackgroundImageFix"/>
<feColorMatrix in="SourceAlpha" type="matrix" values="0 0 0 0 0 0 0 0 0 0 0 0 0 0 0 0 0 0 127 0" result="hardAlpha"/>
<feOffset dy="4"/>
<feGaussianBlur stdDeviation="6.1"/>
<feComposite in2="hardAlpha" operator="out"/>
<feColorMatrix type="matrix" values="0 0 0 0 0.406902 0 0 0 0 0.329412 0 0 0 0 0.533333 0 0 0 1 0"/>
<feBlend mode="normal" in2="BackgroundImageFix" result="effect1_dropShadow_2012_2"/>
<feBlend mode="normal" in="SourceGraphic" in2="effect1_dropShadow_2012_2" result="shape"/>
</filter>
<filter id="filter2_d_2012_2" x="892.8" y="0.8" width="410.4" height="311.4" filterUnits="userSpaceOnUse" color-interpolation-filters="sRGB">
<feFlood flood-opacity="0" result="BackgroundImageFix"/>
<feColorMatrix in="SourceAlpha" type="matrix" values="0 0 0 0 0 0 0 0 0 0 0 0 0 0 0 0 0 0 127 0" result="hardAlpha"/>
<feOffset dy="4"/>
<feGaussianBlur stdDeviation="6.1"/>
<feComposite in2="hardAlpha" operator="out"/>
<feColorMatrix type="matrix" values="0 0 0 0 0.406902 0 0 0 0 0.329412 0 0 0 0 0.533333 0 0 0 1 0"/>
<feBlend mode="normal" in2="BackgroundImageFix" result="effect1_dropShadow_2012_2"/>
<feBlend mode="normal" in="SourceGraphic" in2="effect1_dropShadow_2012_2" result="shape"/>
</filter>
<filter id="filter3_d_2012_2" x="1338.8" y="0.8" width="410.4" height="311.4" filterUnits="userSpaceOnUse" color-interpolation-filters="sRGB">
<feFlood flood-opacity="0" result="BackgroundImageFix"/>
<feColorMatrix in="SourceAlpha" type="matrix" values="0 0 0 0 0 0 0 0 0 0 0 0 0 0 0 0 0 0 127 0" result="hardAlpha"/>
<feOffset dy="4"/>
<feGaussianBlur stdDeviation="6.1"/>
<feComposite in2="hardAlpha" operator="out"/>
<feColorMatrix type="matrix" values="0 0 0 0 0.406902 0 0 0 0 0.329412 0 0 0 0 0.533333 0 0 0 1 0"/>
<feBlend mode="normal" in2="BackgroundImageFix" result="effect1_dropShadow_2012_2"/>
<feBlend mode="normal" in="SourceGraphic" in2="effect1_dropShadow_2012_2" result="shape"/>
</filter>
<linearGradient id="paint0_linear_2012_2" x1="206" y1="9" x2="206" y2="296" gradientUnits="userSpaceOnUse">
<stop stop-color="#F3F2F8"/>
<stop offset="1" stop-color="#E4E1EE"/>
</linearGradient>
<linearGradient id="paint1_linear_2012_2" x1="652" y1="9" x2="652" y2="296" gradientUnits="userSpaceOnUse">
<stop stop-color="#F3F2F8"/>
<stop offset="1" stop-color="#E4E1EE"/>
</linearGradient>
<linearGradient id="paint2_linear_2012_2" x1="1098" y1="9" x2="1098" y2="296" gradientUnits="userSpaceOnUse">
<stop stop-color="#F3F2F8"/>
<stop offset="1" stop-color="#E4E1EE"/>
</linearGradient>
<linearGradient id="paint3_linear_2012_2" x1="1544" y1="9" x2="1544" y2="296" gradientUnits="userSpaceOnUse">
<stop stop-color="#F3F2F8"/>
<stop offset="1" stop-color="#E4E1EE"/>
</linearGradient>
<linearGradient id="paint4_linear_2012_2" x1="205.51" y1="37" x2="205.51" y2="120.173" gradientUnits="userSpaceOnUse">
<stop stop-color="#EC0DFC"/>
<stop offset="1" stop-color="#3FA5E6"/>
</linearGradient>
<linearGradient id="paint5_linear_2012_2" x1="205.496" y1="62.1118" x2="205.496" y2="95.0811" gradientUnits="userSpaceOnUse">
<stop stop-color="#EC0DFC"/>
<stop offset="1" stop-color="#3FA5E6"/>
</linearGradient>
<linearGradient id="paint6_linear_2012_2" x1="183.51" y1="53.0952" x2="183.51" y2="66.7317" gradientUnits="userSpaceOnUse">
<stop stop-color="#EC0DFC"/>
<stop offset="1" stop-color="#3FA5E6"/>
</linearGradient>
<linearGradient id="paint7_linear_2012_2" x1="220.137" y1="93.1514" x2="220.137" y2="107.824" gradientUnits="userSpaceOnUse">
<stop stop-color="#EC0DFC"/>
<stop offset="1" stop-color="#3FA5E6"/>
</linearGradient>
<linearGradient id="paint8_linear_2012_2" x1="210.649" y1="107.194" x2="210.649" y2="110.753" gradientUnits="userSpaceOnUse">
<stop stop-color="#EC0DFC"/>
<stop offset="1" stop-color="#3FA5E6"/>
</linearGradient>
<linearGradient id="paint9_linear_2012_2" x1="193.312" y1="50.9932" x2="193.312" y2="54.5304" gradientUnits="userSpaceOnUse">
<stop stop-color="#EC0DFC"/>
<stop offset="1" stop-color="#3FA5E6"/>
</linearGradient>
<linearGradient id="paint10_linear_2012_2" x1="652.5" y1="37" x2="652.5" y2="120" gradientUnits="userSpaceOnUse">
<stop stop-color="#EC0DFC"/>
<stop offset="1" stop-color="#3FA5E6"/>
</linearGradient>
<linearGradient id="paint11_linear_2012_2" x1="1098.5" y1="43" x2="1098.5" y2="115" gradientUnits="userSpaceOnUse">
<stop stop-color="#EC0DFC"/>
<stop offset="1" stop-color="#3FA5E6"/>
</linearGradient>
<linearGradient id="paint12_linear_2012_2" x1="1548.77" y1="37" x2="1548.77" y2="82.2278" gradientUnits="userSpaceOnUse">
<stop stop-color="#EC0DFC"/>
<stop offset="1" stop-color="#3FA5E6"/>
</linearGradient>
<linearGradient id="paint13_linear_2012_2" x1="1544.37" y1="60.7866" x2="1544.37" y2="120.201" gradientUnits="userSpaceOnUse">
<stop stop-color="#EC0DFC"/>
<stop offset="1" stop-color="#3FA5E6"/>
</linearGradient>
<linearGradient id="paint14_linear_2012_2" x1="1515.07" y1="84.644" x2="1515.07" y2="87.8992" gradientUnits="userSpaceOnUse">
<stop stop-color="#EC0DFC"/>
<stop offset="1" stop-color="#3FA5E6"/>
</linearGradient>
</defs>
</svg>
