<svg width="1695" height="243" viewBox="0 0 1695 243" fill="none" xmlns="http://www.w3.org/2000/svg">
<path d="M73.4355 199.145C79.9868 199.145 85.9465 197.235 91.3149 193.413C96.6833 189.501 100.55 184.405 102.916 178.127H130.486C127.574 190.865 120.795 201.42 110.15 209.791C99.5039 218.071 87.2659 222.211 73.4355 222.211C57.3305 222.211 43.5911 216.752 32.2175 205.833C20.8438 194.823 15.157 181.584 15.157 166.116C15.157 150.557 20.8438 137.318 32.2175 126.4C43.5911 115.39 57.3305 109.885 73.4355 109.885C87.2659 109.885 99.5039 114.071 110.15 122.442C120.795 130.722 127.574 141.231 130.486 153.969H102.916C100.55 147.691 96.6833 142.641 91.3149 138.82C85.9465 134.907 79.9868 132.951 73.4355 132.951C64.7006 132.951 57.2395 136.181 51.0522 142.641C44.865 149.101 41.7713 156.926 41.7713 166.116C41.7713 175.215 44.865 182.995 51.0522 189.455C57.2395 195.915 64.7006 199.145 73.4355 199.145ZM212.168 219.481L204.525 200.101H161.533L154.026 219.481H126.183L170.404 113.297H195.653L239.874 219.481H212.168ZM171.223 176.08H194.835L182.96 146.599L171.223 176.08ZM330.857 113.297H355.833V219.481H330.857L278.583 144.961V219.481H253.47V113.297H288.137L330.857 172.804V113.297ZM446.814 113.297H471.791V219.481H446.814L394.541 144.961V219.481H369.428V113.297H404.095L446.814 172.804V113.297ZM571.371 219.481L563.728 200.101H520.735L513.229 219.481H485.386L529.607 113.297H554.856L599.077 219.481H571.371ZM530.426 176.08H554.037L542.163 146.599L530.426 176.08ZM612.673 219.481V113.297H681.051C685.783 113.297 690.787 114.435 696.064 116.709C701.342 118.984 706.028 122.487 710.122 127.218C714.217 131.95 716.264 137.227 716.264 143.051C716.264 150.421 713.352 156.881 707.529 162.431C716.173 168.801 720.495 176.762 720.495 186.316C720.495 192.594 718.539 198.372 714.626 203.649C710.714 208.836 706.073 212.794 700.705 215.523C695.428 218.162 690.332 219.481 685.419 219.481H612.673ZM672.726 134.043H637.786V153.696H672.726C676.729 153.696 680.278 152.877 683.371 151.24C686.465 149.511 688.012 146.963 688.012 143.597C688.012 137.227 682.917 134.043 672.726 134.043ZM677.093 197.781C681.097 197.781 684.645 196.916 687.739 195.187C690.833 193.459 692.379 190.82 692.379 187.271C692.379 183.632 690.924 180.993 688.012 179.355C685.191 177.626 681.552 176.762 677.093 176.762H637.786V197.781H677.093ZM734.095 219.481V113.297H759.481V219.481H734.095ZM826.786 110.295C833.428 110.295 839.888 111.022 846.167 112.478C852.536 113.843 857.859 115.526 862.135 117.528C866.412 119.439 870.188 121.395 873.463 123.397C876.739 125.399 879.15 127.127 880.697 128.583L883.017 130.631L868.004 147.418C867.64 147.054 867.049 146.554 866.23 145.917C865.502 145.189 863.773 143.96 861.043 142.232C858.405 140.503 855.584 139.002 852.581 137.728C849.67 136.454 845.848 135.271 841.117 134.179C836.476 133.087 831.699 132.541 826.786 132.541C823.055 132.541 819.78 132.814 816.959 133.36C814.229 133.906 812.137 134.543 810.681 135.271C809.316 135.999 808.224 136.863 807.405 137.864C806.677 138.774 806.222 139.548 806.04 140.184C805.858 140.73 805.767 141.322 805.767 141.959C805.767 142.778 805.858 143.506 806.04 144.142C806.222 144.779 806.768 145.553 807.678 146.463C808.679 147.373 809.998 148.146 811.636 148.783C813.365 149.329 815.867 149.829 819.143 150.284C822.509 150.648 826.513 150.83 831.153 150.83C841.708 150.83 851.217 152.013 859.679 154.379C868.231 156.653 875.238 160.43 880.697 165.707C886.247 170.984 889.022 177.399 889.022 184.951C889.022 192.958 886.293 199.919 880.833 205.833C875.465 211.656 868.732 215.933 860.634 218.663C852.536 221.301 843.801 222.621 834.429 222.621C827.969 222.621 821.463 221.62 814.912 219.618C808.361 217.707 802.674 215.387 797.851 212.657C793.029 209.837 788.661 207.061 784.749 204.332C780.927 201.602 778.061 199.282 776.15 197.371L773.148 194.368L789.662 177.035C790.208 177.672 790.982 178.491 791.983 179.492C792.983 180.402 795.076 182.13 798.261 184.678C801.445 187.135 804.676 189.319 807.951 191.229C811.318 193.14 815.412 194.914 820.235 196.552C825.148 198.099 829.925 198.872 834.566 198.872C839.479 198.872 843.755 198.508 847.395 197.781C851.035 197.053 853.764 196.188 855.584 195.187C857.404 194.186 858.86 193.049 859.951 191.775C861.043 190.501 861.68 189.501 861.862 188.773C862.135 187.954 862.272 187.18 862.272 186.452C862.272 179.173 851.899 175.534 831.153 175.534C796.851 175.534 779.699 164.524 779.699 142.505C779.699 137.136 781.2 132.314 784.203 128.037C787.206 123.67 791.118 120.258 795.941 117.801C800.763 115.344 805.813 113.479 811.09 112.205C816.368 110.931 821.6 110.295 826.786 110.295ZM957.347 219.481V113.297H1025.73C1030.46 113.297 1035.46 114.435 1040.74 116.709C1046.02 118.984 1050.7 122.487 1054.8 127.218C1058.89 131.95 1060.94 137.227 1060.94 143.051C1060.94 150.421 1058.03 156.881 1052.2 162.431C1060.85 168.801 1065.17 176.762 1065.17 186.316C1065.17 192.594 1063.21 198.372 1059.3 203.649C1055.39 208.836 1050.75 212.794 1045.38 215.523C1040.1 218.162 1035.01 219.481 1030.09 219.481H957.347ZM1017.4 134.043H982.46V153.696H1017.4C1021.4 153.696 1024.95 152.877 1028.05 151.24C1031.14 149.511 1032.69 146.963 1032.69 143.597C1032.69 137.227 1027.59 134.043 1017.4 134.043ZM1021.77 197.781C1025.77 197.781 1029.32 196.916 1032.41 195.187C1035.51 193.459 1037.05 190.82 1037.05 187.271C1037.05 183.632 1035.6 180.993 1032.69 179.355C1029.87 177.626 1026.23 176.762 1021.77 176.762H982.46V197.781H1021.77ZM1158.89 219.481L1138.82 184.542H1104.02V219.481H1078.77V113.297H1151.93C1155.38 113.297 1159.07 114.116 1162.98 115.754C1166.98 117.301 1170.76 119.484 1174.31 122.305C1177.95 125.126 1180.95 128.811 1183.32 133.36C1185.68 137.91 1186.87 142.823 1186.87 148.1C1186.87 155.016 1185 161.294 1181.27 166.935C1177.54 172.486 1172.85 176.853 1167.21 180.038L1189.87 219.481H1158.89ZM1104.02 137.455V160.657H1143.6C1147.6 160.657 1151.15 159.702 1154.25 157.791C1157.34 155.88 1158.89 152.968 1158.89 149.056C1158.89 144.961 1157.43 142.004 1154.52 140.184C1151.7 138.365 1148.06 137.455 1143.6 137.455H1104.02ZM1289.51 219.481L1281.87 200.101H1238.87L1231.37 219.481H1203.52L1247.75 113.297H1272.99L1317.22 219.481H1289.51ZM1248.56 176.08H1272.18L1260.3 146.599L1248.56 176.08ZM1408.2 113.297H1433.17V219.481H1408.2L1355.92 144.961V219.481H1330.81V113.297H1365.48L1408.2 172.804V113.297ZM1446.77 219.481V113.297H1512.01C1517.1 113.297 1522.2 114.525 1527.29 116.982C1532.39 119.348 1537.03 122.669 1541.22 126.946C1545.49 131.222 1548.95 136.727 1551.59 143.46C1554.23 150.193 1555.55 157.518 1555.55 165.434C1555.55 181.812 1551.54 194.914 1543.54 204.741C1535.62 214.568 1525.11 219.481 1512.01 219.481H1446.77ZM1509.69 195.324C1515.33 195.324 1519.92 192.276 1523.47 186.179C1527.02 180.083 1528.8 173.532 1528.8 166.526C1528.8 161.885 1528.16 157.472 1526.89 153.287C1525.61 149.01 1523.47 145.325 1520.47 142.232C1517.47 139.047 1513.87 137.455 1509.69 137.455H1472.02V195.324H1509.69ZM1617.17 110.295C1623.81 110.295 1630.27 111.022 1636.55 112.478C1642.92 113.843 1648.24 115.526 1652.51 117.528C1656.79 119.439 1660.57 121.395 1663.84 123.397C1667.12 125.399 1669.53 127.127 1671.08 128.583L1673.4 130.631L1658.38 147.418C1658.02 147.054 1657.43 146.554 1656.61 145.917C1655.88 145.189 1654.15 143.96 1651.42 142.232C1648.78 140.503 1645.96 139.002 1642.96 137.728C1640.05 136.454 1636.23 135.271 1631.5 134.179C1626.86 133.087 1622.08 132.541 1617.17 132.541C1613.43 132.541 1610.16 132.814 1607.34 133.36C1604.61 133.906 1602.52 134.543 1601.06 135.271C1599.7 135.999 1598.6 136.863 1597.78 137.864C1597.06 138.774 1596.6 139.548 1596.42 140.184C1596.24 140.73 1596.15 141.322 1596.15 141.959C1596.15 142.778 1596.24 143.506 1596.42 144.142C1596.6 144.779 1597.15 145.553 1598.06 146.463C1599.06 147.373 1600.38 148.146 1602.02 148.783C1603.74 149.329 1606.25 149.829 1609.52 150.284C1612.89 150.648 1616.89 150.83 1621.53 150.83C1632.09 150.83 1641.6 152.013 1650.06 154.379C1658.61 156.653 1665.62 160.43 1671.08 165.707C1676.63 170.984 1679.4 177.399 1679.4 184.951C1679.4 192.958 1676.67 199.919 1671.21 205.833C1665.84 211.656 1659.11 215.933 1651.01 218.663C1642.92 221.301 1634.18 222.621 1624.81 222.621C1618.35 222.621 1611.84 221.62 1605.29 219.618C1598.74 217.707 1593.05 215.387 1588.23 212.657C1583.41 209.837 1579.04 207.061 1575.13 204.332C1571.31 201.602 1568.44 199.282 1566.53 197.371L1563.53 194.368L1580.04 177.035C1580.59 177.672 1581.36 178.491 1582.36 179.492C1583.36 180.402 1585.46 182.13 1588.64 184.678C1591.82 187.135 1595.05 189.319 1598.33 191.229C1601.7 193.14 1605.79 194.914 1610.61 196.552C1615.53 198.099 1620.3 198.872 1624.94 198.872C1629.86 198.872 1634.13 198.508 1637.77 197.781C1641.41 197.053 1644.14 196.188 1645.96 195.187C1647.78 194.186 1649.24 193.049 1650.33 191.775C1651.42 190.501 1652.06 189.501 1652.24 188.773C1652.51 187.954 1652.65 187.18 1652.65 186.452C1652.65 179.173 1642.28 175.534 1621.53 175.534C1587.23 175.534 1570.08 164.524 1570.08 142.505C1570.08 137.136 1571.58 132.314 1574.58 128.037C1577.58 123.67 1581.5 120.258 1586.32 117.801C1591.14 115.344 1596.19 113.479 1601.47 112.205C1606.75 110.931 1611.98 110.295 1617.17 110.295Z" fill="#131212"/>
<path d="M144.345 57.84H188.985V72H129.625V9.76H185.625V23.92H144.345V32.32H167.065V46.56H144.345V57.84ZM255.129 9.76H278.089V72H263.289V27.44L244.889 72H230.169L211.769 27.52V72H196.969V9.76H219.929L237.529 48.96L255.129 9.76ZM336.509 72L332.029 60.64H306.829L302.429 72H286.109L312.029 9.76H326.829L352.749 72H336.509ZM312.509 46.56H326.349L319.389 29.28L312.509 46.56ZM360.719 72V9.76H375.599V72H360.719ZM398.329 57.84H436.089V72H383.609V9.76H398.329V57.84ZM542.109 60.72L536.269 72L530.349 68.16C526.456 70.72 522.589 72 518.749 72H496.589C493.709 72 490.723 71.2267 487.629 69.68C484.536 68.1333 481.843 65.84 479.549 62.8C477.256 59.7067 476.109 56.32 476.109 52.64C476.109 49.6533 476.829 46.7467 478.269 43.92C479.709 41.0933 481.523 38.8533 483.709 37.2C480.296 33.9467 478.589 30.08 478.589 25.6C478.589 22.1867 479.763 19.0933 482.109 16.32C484.509 13.5467 487.256 11.4933 490.349 10.16C493.443 8.82666 496.403 8.16 499.229 8.16H509.549C512.323 8.16 515.256 8.82666 518.349 10.16C521.443 11.4933 524.163 13.5467 526.509 16.32C528.909 19.0933 530.109 22.1867 530.109 25.6C530.109 26.56 530.029 27.44 529.869 28.24H513.709V25.92C513.709 22.1867 510.696 20.32 504.669 20.32C502.269 20.32 500.163 20.8 498.349 21.76C496.536 22.72 495.443 24.1067 495.069 25.92C495.016 26.7733 494.909 27.76 494.749 28.88L521.949 47.76C521.843 46.9067 521.336 44.9067 520.429 41.76H537.549C537.656 42.1867 537.843 43.0133 538.109 44.24C538.429 45.4133 538.643 46.2933 538.749 46.88C538.856 47.4133 538.963 48.24 539.069 49.36C539.229 50.4267 539.309 51.52 539.309 52.64C539.309 54.3467 538.989 56.16 538.349 58.08L542.109 60.72ZM513.709 59.28C514.509 59.28 515.309 59.2 516.109 59.04L493.309 44.64C493.203 45.8667 493.096 47.12 492.989 48.4C492.883 49.68 492.776 50.8267 492.669 51.84C492.563 52.8 492.509 53.3067 492.509 53.36C492.509 55.3333 493.416 56.8267 495.229 57.84C497.096 58.8 499.203 59.28 501.549 59.28H513.709ZM613.565 8C617.458 8 621.245 8.42666 624.925 9.28C628.658 10.08 631.778 11.0667 634.285 12.24C636.792 13.36 639.005 14.5067 640.925 15.68C642.845 16.8533 644.258 17.8667 645.165 18.72L646.525 19.92L637.725 29.76C637.512 29.5467 637.165 29.2533 636.685 28.88C636.258 28.4533 635.245 27.7333 633.645 26.72C632.098 25.7067 630.445 24.8267 628.685 24.08C626.978 23.3333 624.738 22.64 621.965 22C619.245 21.36 616.445 21.04 613.565 21.04C611.378 21.04 609.458 21.2 607.805 21.52C606.205 21.84 604.978 22.2133 604.125 22.64C603.325 23.0667 602.685 23.5733 602.205 24.16C601.778 24.6933 601.512 25.1467 601.405 25.52C601.298 25.84 601.245 26.1867 601.245 26.56C601.245 27.04 601.298 27.4667 601.405 27.84C601.512 28.2133 601.832 28.6667 602.365 29.2C602.952 29.7333 603.725 30.1867 604.685 30.56C605.698 30.88 607.165 31.1733 609.085 31.44C611.058 31.6533 613.405 31.76 616.125 31.76C622.312 31.76 627.885 32.4533 632.845 33.84C637.858 35.1733 641.965 37.3867 645.165 40.48C648.418 43.5733 650.045 47.3333 650.045 51.76C650.045 56.4533 648.445 60.5333 645.245 64C642.098 67.4133 638.152 69.92 633.405 71.52C628.658 73.0667 623.538 73.84 618.045 73.84C614.258 73.84 610.445 73.2533 606.605 72.08C602.765 70.96 599.432 69.6 596.605 68C593.778 66.3467 591.218 64.72 588.925 63.12C586.685 61.52 585.005 60.16 583.885 59.04L582.125 57.28L591.805 47.12C592.125 47.4933 592.578 47.9733 593.165 48.56C593.752 49.0933 594.978 50.1067 596.845 51.6C598.712 53.04 600.605 54.32 602.525 55.44C604.498 56.56 606.898 57.6 609.725 58.56C612.605 59.4667 615.405 59.92 618.125 59.92C621.005 59.92 623.512 59.7067 625.645 59.28C627.778 58.8533 629.378 58.3467 630.445 57.76C631.512 57.1733 632.365 56.5067 633.005 55.76C633.645 55.0133 634.018 54.4267 634.125 54C634.285 53.52 634.365 53.0667 634.365 52.64C634.365 48.3733 628.285 46.24 616.125 46.24C596.018 46.24 585.965 39.7867 585.965 26.88C585.965 23.7333 586.845 20.9067 588.605 18.4C590.365 15.84 592.658 13.84 595.485 12.4C598.312 10.96 601.272 9.86667 604.365 9.12C607.458 8.37333 610.525 8 613.565 8ZM716.223 9.76H739.183V72H724.383V27.44L705.983 72H691.263L672.863 27.52V72H658.063V9.76H681.023L698.623 48.96L716.223 9.76ZM778.643 8C782.536 8 786.323 8.42666 790.003 9.28C793.736 10.08 796.856 11.0667 799.363 12.24C801.87 13.36 804.083 14.5067 806.003 15.68C807.923 16.8533 809.336 17.8667 810.243 18.72L811.603 19.92L802.803 29.76C802.59 29.5467 802.243 29.2533 801.763 28.88C801.336 28.4533 800.323 27.7333 798.723 26.72C797.176 25.7067 795.523 24.8267 793.763 24.08C792.056 23.3333 789.816 22.64 787.043 22C784.323 21.36 781.523 21.04 778.643 21.04C776.456 21.04 774.536 21.2 772.883 21.52C771.283 21.84 770.056 22.2133 769.203 22.64C768.403 23.0667 767.763 23.5733 767.283 24.16C766.856 24.6933 766.59 25.1467 766.483 25.52C766.376 25.84 766.323 26.1867 766.323 26.56C766.323 27.04 766.376 27.4667 766.483 27.84C766.59 28.2133 766.91 28.6667 767.443 29.2C768.03 29.7333 768.803 30.1867 769.763 30.56C770.776 30.88 772.243 31.1733 774.163 31.44C776.136 31.6533 778.483 31.76 781.203 31.76C787.39 31.76 792.963 32.4533 797.923 33.84C802.936 35.1733 807.043 37.3867 810.243 40.48C813.496 43.5733 815.123 47.3333 815.123 51.76C815.123 56.4533 813.523 60.5333 810.323 64C807.176 67.4133 803.23 69.92 798.483 71.52C793.736 73.0667 788.616 73.84 783.123 73.84C779.336 73.84 775.523 73.2533 771.683 72.08C767.843 70.96 764.51 69.6 761.683 68C758.856 66.3467 756.296 64.72 754.003 63.12C751.763 61.52 750.083 60.16 748.963 59.04L747.203 57.28L756.883 47.12C757.203 47.4933 757.656 47.9733 758.243 48.56C758.83 49.0933 760.056 50.1067 761.923 51.6C763.79 53.04 765.683 54.32 767.603 55.44C769.576 56.56 771.976 57.6 774.803 58.56C777.683 59.4667 780.483 59.92 783.203 59.92C786.083 59.92 788.59 59.7067 790.723 59.28C792.856 58.8533 794.456 58.3467 795.523 57.76C796.59 57.1733 797.443 56.5067 798.083 55.76C798.723 55.0133 799.096 54.4267 799.203 54C799.363 53.52 799.443 53.0667 799.443 52.64C799.443 48.3733 793.363 46.24 781.203 46.24C761.096 46.24 751.043 39.7867 751.043 26.88C751.043 23.7333 751.923 20.9067 753.683 18.4C755.443 15.84 757.736 13.84 760.563 12.4C763.39 10.96 766.35 9.86667 769.443 9.12C772.536 8.37333 775.603 8 778.643 8ZM869.892 57.84H914.532V72H855.172V9.76H911.172V23.92H869.892V32.32H892.612V46.56H869.892V57.84ZM986.596 72H968.676L954.596 50L940.516 71.92H922.516L945.076 37.92L926.676 9.76H944.596L954.596 25.2L964.596 9.68H982.436L964.116 37.92L986.596 72ZM1037.43 9.76C1039.45 9.76 1041.61 10.24 1043.91 11.2C1046.25 12.1067 1048.49 13.3867 1050.63 15.04C1052.76 16.6933 1054.52 18.8533 1055.91 21.52C1057.29 24.1867 1057.99 27.0667 1057.99 30.16C1057.99 33.2533 1057.29 36.1867 1055.91 38.96C1054.57 41.7333 1052.87 44 1050.79 45.76C1048.76 47.52 1046.55 48.9333 1044.15 50C1041.8 51.0133 1039.56 51.52 1037.43 51.52H1009.35V72H994.625V9.76H1037.43ZM1032.47 37.52C1034.81 37.52 1036.89 36.96 1038.71 35.84C1040.57 34.72 1041.51 33.0133 1041.51 30.72C1041.51 28.32 1040.65 26.5867 1038.95 25.52C1037.24 24.4533 1035.08 23.92 1032.47 23.92H1009.35V37.52H1032.47ZM1080.67 57.84H1125.31V72H1065.95V9.76H1121.95V23.92H1080.67V32.32H1103.39V46.56H1080.67V57.84ZM1180.26 72L1168.5 51.52H1148.1V72H1133.3V9.76H1176.18C1178.2 9.76 1180.36 10.24 1182.66 11.2C1185 12.1067 1187.22 13.3867 1189.3 15.04C1191.43 16.6933 1193.19 18.8533 1194.58 21.52C1195.96 24.1867 1196.66 27.0667 1196.66 30.16C1196.66 34.2133 1195.56 37.8933 1193.38 41.2C1191.19 44.4533 1188.44 47.0133 1185.14 48.88L1198.42 72H1180.26ZM1148.1 23.92V37.52H1171.3C1173.64 37.52 1175.72 36.96 1177.54 35.84C1179.35 34.72 1180.26 33.0133 1180.26 30.72C1180.26 28.32 1179.4 26.5867 1177.7 25.52C1176.04 24.4533 1173.91 23.92 1171.3 23.92H1148.1ZM1256.95 9.76V23.92H1236.39V72H1221.59V23.92H1200.95V9.76H1256.95ZM1289.11 8C1293.01 8 1296.79 8.42666 1300.47 9.28C1304.21 10.08 1307.33 11.0667 1309.83 12.24C1312.34 13.36 1314.55 14.5067 1316.47 15.68C1318.39 16.8533 1319.81 17.8667 1320.71 18.72L1322.07 19.92L1313.27 29.76C1313.06 29.5467 1312.71 29.2533 1312.23 28.88C1311.81 28.4533 1310.79 27.7333 1309.19 26.72C1307.65 25.7067 1305.99 24.8267 1304.23 24.08C1302.53 23.3333 1300.29 22.64 1297.51 22C1294.79 21.36 1291.99 21.04 1289.11 21.04C1286.93 21.04 1285.01 21.2 1283.35 21.52C1281.75 21.84 1280.53 22.2133 1279.67 22.64C1278.87 23.0667 1278.23 23.5733 1277.75 24.16C1277.33 24.6933 1277.06 25.1467 1276.95 25.52C1276.85 25.84 1276.79 26.1867 1276.79 26.56C1276.79 27.04 1276.85 27.4667 1276.95 27.84C1277.06 28.2133 1277.38 28.6667 1277.91 29.2C1278.5 29.7333 1279.27 30.1867 1280.23 30.56C1281.25 30.88 1282.71 31.1733 1284.63 31.44C1286.61 31.6533 1288.95 31.76 1291.67 31.76C1297.86 31.76 1303.43 32.4533 1308.39 33.84C1313.41 35.1733 1317.51 37.3867 1320.71 40.48C1323.97 43.5733 1325.59 47.3333 1325.59 51.76C1325.59 56.4533 1323.99 60.5333 1320.79 64C1317.65 67.4133 1313.7 69.92 1308.95 71.52C1304.21 73.0667 1299.09 73.84 1293.59 73.84C1289.81 73.84 1285.99 73.2533 1282.15 72.08C1278.31 70.96 1274.98 69.6 1272.15 68C1269.33 66.3467 1266.77 64.72 1264.47 63.12C1262.23 61.52 1260.55 60.16 1259.43 59.04L1257.67 57.28L1267.35 47.12C1267.67 47.4933 1268.13 47.9733 1268.71 48.56C1269.3 49.0933 1270.53 50.1067 1272.39 51.6C1274.26 53.04 1276.15 54.32 1278.07 55.44C1280.05 56.56 1282.45 57.6 1285.27 58.56C1288.15 59.4667 1290.95 59.92 1293.67 59.92C1296.55 59.92 1299.06 59.7067 1301.19 59.28C1303.33 58.8533 1304.93 58.3467 1305.99 57.76C1307.06 57.1733 1307.91 56.5067 1308.55 55.76C1309.19 55.0133 1309.57 54.4267 1309.67 54C1309.83 53.52 1309.91 53.0667 1309.91 52.64C1309.91 48.3733 1303.83 46.24 1291.67 46.24C1271.57 46.24 1261.51 39.7867 1261.51 26.88C1261.51 23.7333 1262.39 20.9067 1264.15 18.4C1265.91 15.84 1268.21 13.84 1271.03 12.4C1273.86 10.96 1276.82 9.86667 1279.91 9.12C1283.01 8.37333 1286.07 8 1289.11 8ZM1380.28 46.56V72H1365.64V9.76H1421.64V23.92H1380.28V32.48H1403.08V46.56H1380.28ZM1433.84 17.6C1440.56 11.1467 1448.64 7.92 1458.08 7.92C1467.52 7.92 1475.58 11.1467 1482.24 17.6C1488.91 24 1492.24 31.7333 1492.24 40.8C1492.24 49.92 1488.91 57.7067 1482.24 64.16C1475.58 70.56 1467.52 73.76 1458.08 73.76C1448.59 73.76 1440.51 70.56 1433.84 64.16C1427.18 57.7067 1423.84 49.92 1423.84 40.8C1423.84 31.7333 1427.18 24 1433.84 17.6ZM1458.08 60.24C1463.2 60.24 1467.55 58.3467 1471.12 54.56C1474.75 50.7733 1476.56 46.1867 1476.56 40.8C1476.56 35.4133 1474.75 30.8533 1471.12 27.12C1467.55 23.3333 1463.2 21.44 1458.08 21.44C1452.91 21.44 1448.51 23.3333 1444.88 27.12C1441.31 30.8533 1439.52 35.4133 1439.52 40.8C1439.52 46.1867 1441.31 50.7733 1444.88 54.56C1448.51 58.3467 1452.91 60.24 1458.08 60.24ZM1547.21 72L1535.45 51.52H1515.05V72H1500.25V9.76H1543.13C1545.16 9.76 1547.32 10.24 1549.61 11.2C1551.96 12.1067 1554.17 13.3867 1556.25 15.04C1558.38 16.6933 1560.14 18.8533 1561.53 21.52C1562.92 24.1867 1563.61 27.0667 1563.61 30.16C1563.61 34.2133 1562.52 37.8933 1560.33 41.2C1558.14 44.4533 1555.4 47.0133 1552.09 48.88L1565.37 72H1547.21ZM1515.05 23.92V37.52H1538.25C1540.6 37.52 1542.68 36.96 1544.49 35.84C1546.3 34.72 1547.21 33.0133 1547.21 30.72C1547.21 28.32 1546.36 26.5867 1544.65 25.52C1543 24.4533 1540.86 23.92 1538.25 23.92H1515.05Z" fill="#4528B6"/>
</svg>
